<svg width="600" height="437" version="1.1" xmlns="http://www.w3.org/2000/svg">
    <path fill="rgb(246,250,252)" stroke="rgb(246,250,252)" stroke-width="1" opacity="0.9882352941176471"
          d="M 0.5 0.0 L 461.0 0.5 L 419.0 22.5 L 408.5 28.0 Q 406.8 30.8 401.5 30.0 L 391.0 26.5 L 380.5 24.0 L 364.5 21.0 L 351.0 19.5 L 340.5 19.0 L 308.5 19.0 L 304.5 20.0 L 296.5 21.0 L 280.5 23.0 L 272.0 25.5 L 267.5 26.0 Q 202.9 43.9 165.0 88.5 Q 150.0 105.5 140.5 128.0 L 90.0 114.5 L 78.5 112.0 Q 75.5 109.0 68.5 110.0 Q 65.5 110.5 66.0 114.5 L 65.0 117.5 L 64.0 130.5 L 62.0 140.5 L 57.5 171.0 L 48.5 163.0 Q 44.1 157.4 32.5 159.0 L 24.0 165.5 Q 14.1 178.1 14.5 201.0 L 9.5 197.0 L 3.5 196.0 L 0.0 198.5 L 0.5 0.0 Z"/>
    <path fill="rgb(246,250,252)" stroke="rgb(246,250,252)" stroke-width="1" opacity="0.9882352941176471"
          d="M 466.5 0.0 L 600.0 0.5 L 599.5 279.0 Q 598.3 272.2 593.5 269.0 Q 587.7 263.8 574.5 266.0 L 570.5 267.0 L 570.0 265.5 L 596.0 212.5 L 593.5 209.0 L 529.0 185.5 Q 527.5 177.0 532.0 174.5 L 541.0 164.5 L 566.5 132.0 L 574.5 122.0 Q 577.6 120.6 577.0 115.5 L 575.5 113.0 L 567.5 112.0 L 562.5 113.0 L 552.5 114.0 L 513.5 118.0 L 509.0 111.5 L 523.5 64.0 L 526.5 54.0 Q 528.8 51.3 528.0 45.5 L 522.5 42.0 L 472.5 68.0 L 454.0 54.5 L 464.0 20.5 L 466.5 12.0 Q 468.9 8.9 468.0 2.5 L 466.5 0.0 Z"/>
    <path fill="rgb(1,1,1)" stroke="rgb(1,1,1)" stroke-width="1" opacity="0.996078431372549"
          d="M 460.5 1.0 Q 465.8 -0.2 467.0 2.5 L 468.0 5.5 L 453.0 54.5 L 473.5 69.0 L 510.0 49.5 L 519.5 45.0 Q 520.3 42.3 524.5 43.0 Q 528.3 44.3 527.0 50.5 L 515.5 88.0 L 511.0 102.5 L 509.0 112.5 L 512.5 119.0 L 540.5 116.0 L 555.5 115.0 L 560.5 114.0 L 573.5 113.0 L 576.0 114.5 Q 577.3 120.3 574.0 121.5 L 568.0 128.5 L 542.0 161.5 L 532.0 173.5 L 529.5 177.0 Q 526.3 178.8 528.0 185.5 L 540.5 191.0 L 573.5 203.0 L 586.0 207.5 Q 592.5 208.0 595.0 212.5 L 592.5 220.0 L 587.5 230.0 L 569.0 267.5 L 572.5 268.0 L 576.5 267.0 L 587.5 267.0 Q 594.0 268.5 597.0 273.5 Q 600.6 278.9 599.0 289.5 Q 595.8 305.8 587.0 316.5 L 592.5 317.0 Q 597.6 316.4 599.0 319.5 Q 600.5 327.5 595.5 329.0 L 571.5 343.0 L 565.5 346.0 L 559.5 347.0 L 554.5 346.0 L 546.0 340.5 L 541.5 330.0 L 541.0 319.5 L 543.0 309.5 L 551.0 286.5 L 556.0 276.5 L 557.5 271.0 L 563.0 260.5 L 585.0 216.5 L 569.5 210.0 L 527.5 195.0 L 524.5 212.0 L 522.5 220.0 L 516.5 236.0 Q 511.7 249.2 504.0 259.5 Q 514.4 273.6 514.0 298.5 L 512.0 309.5 Q 508.3 323.3 500.5 333.0 L 482.5 353.0 Q 432.0 395.0 336.5 392.0 L 331.5 391.0 L 318.5 390.0 L 298.0 385.5 Q 245.4 374.1 215.0 340.5 Q 206.5 331.0 201.5 318.0 L 198.0 308.5 Q 199.0 302.0 194.5 301.0 L 188.5 297.0 L 164.0 311.5 L 203.0 365.5 Q 203.4 370.6 207.0 372.5 L 215.0 385.5 Q 221.0 392.5 223.0 403.5 L 225.0 408.5 L 226.0 421.5 Q 224.1 429.1 218.5 433.0 L 207.5 437.0 L 187.0 430.5 L 175.5 426.0 L 168.0 420.5 L 168.5 415.0 Q 172.1 411.6 179.0 411.5 L 167.0 395.5 L 163.0 387.5 Q 159.9 382.1 161.0 372.5 Q 162.6 365.6 168.5 363.0 L 179.0 360.5 L 189.0 359.5 L 161.5 323.0 L 155.5 315.0 L 153.0 309.5 Q 156.8 304.3 163.5 302.0 L 182.0 291.5 Q 155.9 268.6 140.5 235.0 L 112.0 246.5 L 119.0 260.5 L 140.0 300.5 L 144.0 311.5 L 150.5 324.0 L 155.0 336.5 L 157.0 345.5 Q 159.5 351.0 158.0 360.5 Q 156.3 368.8 150.5 373.0 Q 145.8 376.8 137.5 377.0 Q 115.1 369.9 100.0 355.5 Q 99.0 349.0 103.5 348.0 L 112.0 347.5 L 104.5 334.0 Q 98.3 325.3 99.0 309.5 Q 100.8 302.3 106.5 299.0 Q 112.3 295.8 122.5 297.0 Q 123.8 299.3 128.5 298.0 L 129.0 296.5 L 106.0 254.5 L 103.0 248.5 L 102.0 242.5 L 106.0 239.5 L 114.0 236.5 L 138.0 226.5 L 133.0 207.5 L 132.0 203.5 L 130.5 200.0 L 109.0 195.5 L 98.5 194.0 L 92.5 240.0 L 91.0 252.5 L 90.0 257.5 Q 87.4 260.4 88.0 266.5 L 87.5 272.0 L 86.0 278.5 Q 83.1 303.1 69.5 317.0 L 65.5 319.0 Q 62.3 321.3 55.5 320.0 L 47.0 314.5 L 37.5 294.0 L 33.0 279.5 L 36.5 275.0 Q 43.3 274.3 45.5 278.0 L 48.0 257.5 L 51.5 248.0 Q 53.7 240.7 59.5 237.0 L 67.5 235.0 L 77.0 239.5 L 83.5 245.0 L 86.5 221.0 L 88.0 204.5 L 89.0 200.5 L 90.0 192.5 Q 89.2 186.7 92.5 185.0 L 95.5 184.0 L 130.5 192.0 L 131.0 182.5 Q 128.3 180.8 130.0 174.5 L 131.0 170.5 L 132.0 159.5 L 138.0 137.5 L 130.0 134.5 L 118.5 132.0 L 113.5 130.0 L 103.5 128.0 L 74.5 120.0 L 65.0 183.5 Q 62.0 186.5 62.0 192.5 L 60.0 206.5 L 53.0 225.5 Q 48.6 235.6 40.5 242.0 L 29.5 245.0 L 26.5 244.0 L 17.0 239.5 L 6.5 219.0 L 2.0 209.5 Q -0.3 206.3 1.0 199.5 Q 2.3 195.8 8.5 197.0 L 14.5 202.0 L 16.0 191.5 L 17.0 186.5 Q 18.5 170.0 28.5 162.0 L 38.5 159.0 Q 51.0 162.5 57.5 172.0 L 59.0 166.5 L 60.0 160.5 L 64.0 133.5 L 66.0 119.5 L 67.0 114.5 L 68.5 111.0 Q 75.6 109.9 79.0 112.5 L 92.5 116.0 L 140.5 129.0 Q 156.8 92.8 185.5 69.0 Q 207.1 50.1 235.5 38.0 L 248.5 33.0 L 260.0 29.5 L 270.5 27.0 L 286.5 23.0 L 306.5 20.0 L 339.5 19.0 L 342.5 20.0 L 351.5 20.0 L 379.0 24.5 L 405.5 31.0 L 460.5 1.0 Z"/>
    <path fill="rgb(95,95,95)" stroke="rgb(95,95,95)" stroke-width="1" opacity="1.0"
          d="M 466.5 1.0 L 467.5 3.0 L 466.5 1.0 Z"/>
    <path fill="rgb(246,250,252)" stroke="rgb(246,250,252)" stroke-width="1" opacity="0.9882352941176471"
          d="M 453.5 15.0 L 455.0 15.5 L 448.5 38.0 L 444.5 49.0 L 417.0 34.5 L 453.5 15.0 Z"/>
    <path fill="rgb(55,55,55)" stroke="rgb(55,55,55)" stroke-width="1" opacity="1.0"
          d="M 315.5 19.0 L 318.0 19.5 L 315.5 20.0 L 315.5 19.0 Z"/>
    <path fill="rgb(55,55,55)" stroke="rgb(55,55,55)" stroke-width="1" opacity="1.0"
          d="M 340.5 19.0 L 343.0 19.5 L 340.5 20.0 L 340.5 19.0 Z"/>
    <path fill="rgb(55,55,55)" stroke="rgb(55,55,55)" stroke-width="1" opacity="1.0"
          d="M 353.5 20.0 L 356.0 20.5 L 353.5 21.0 L 353.5 20.0 Z"/>
    <path fill="rgb(246,250,252)" stroke="rgb(246,250,252)" stroke-width="1" opacity="0.9882352941176471"
          d="M 319.5 31.0 L 339.0 31.5 L 356.5 33.0 L 369.5 35.0 Q 379.5 35.5 386.5 39.0 Q 400.3 41.3 411.0 46.5 L 429.0 54.5 Q 458.5 69.5 480.0 92.5 Q 493.0 106.5 502.0 124.5 Q 509.0 137.0 512.5 153.0 L 515.0 167.5 L 516.0 176.5 L 516.0 190.5 L 515.0 195.5 L 514.0 203.5 L 512.0 212.5 L 508.5 224.0 L 497.5 247.0 L 478.0 229.5 L 479.0 222.5 L 480.0 215.5 L 480.0 200.5 Q 475.2 175.8 459.5 162.0 Q 451.8 154.2 440.0 150.5 L 428.0 147.5 L 413.5 147.0 Q 391.4 150.9 379.0 164.5 Q 367.5 176.0 362.5 194.0 L 354.0 193.5 Q 348.5 171.0 332.5 159.0 L 316.5 150.0 L 303.5 147.0 L 292.5 146.0 L 279.5 149.0 Q 269.8 150.8 264.0 156.5 L 251.0 167.5 L 242.0 181.5 L 237.0 195.5 L 236.5 201.0 L 236.0 219.5 L 238.0 225.5 Q 224.3 234.3 214.0 246.5 Q 203.4 258.4 198.0 275.5 L 195.5 287.0 L 176.0 268.5 Q 162.2 252.8 153.0 232.5 L 149.0 221.5 L 145.0 206.5 L 143.5 197.0 L 143.0 189.5 L 143.0 167.5 L 146.0 151.5 Q 152.7 125.7 167.0 107.5 Q 178.0 90.5 193.5 78.0 Q 209.9 63.4 231.0 53.5 Q 252.5 42.0 280.5 37.0 L 287.5 35.0 L 298.0 33.5 L 312.5 32.0 Q 318.0 33.5 319.5 31.0 Z"/>
    <path fill="rgb(55,55,55)" stroke="rgb(55,55,55)" stroke-width="1" opacity="1.0"
          d="M 525.5 43.0 L 526.5 45.0 L 525.5 43.0 Z"/>
    <path fill="rgb(95,95,95)" stroke="rgb(95,95,95)" stroke-width="1" opacity="1.0"
          d="M 527.5 46.0 L 528.0 48.5 L 527.0 48.5 L 527.5 46.0 Z"/>
    <path fill="rgb(95,95,95)" stroke="rgb(95,95,95)" stroke-width="1" opacity="1.0"
          d="M 453.5 53.0 L 455.0 55.5 L 453.0 54.5 L 453.5 53.0 Z"/>
    <path fill="rgb(246,250,252)" stroke="rgb(246,250,252)" stroke-width="1" opacity="0.9882352941176471"
          d="M 514.5 57.0 L 515.0 59.5 L 502.5 100.0 L 481.0 75.5 L 514.5 57.0 Z"/>
    <path fill="rgb(55,55,55)" stroke="rgb(55,55,55)" stroke-width="1" opacity="1.0"
          d="M 464.5 62.0 L 465.5 64.0 L 464.5 62.0 Z"/>
    <path fill="rgb(205,205,205)" stroke="rgb(205,205,205)" stroke-width="1" opacity="1.0"
          d="M 185.5 68.0 L 184.5 70.0 L 185.5 68.0 Z"/>
    <path fill="rgb(95,95,95)" stroke="rgb(95,95,95)" stroke-width="1" opacity="1.0"
          d="M 182.5 71.0 L 179.5 75.0 L 182.5 71.0 Z"/>
    <path fill="rgb(55,55,55)" stroke="rgb(55,55,55)" stroke-width="1" opacity="1.0"
          d="M 458.5 72.0 L 459.5 74.0 L 458.5 72.0 Z"/>
    <path fill="rgb(55,55,55)" stroke="rgb(55,55,55)" stroke-width="1" opacity="1.0"
          d="M 198.5 73.0 L 197.5 75.0 L 198.5 73.0 Z"/>
    <path fill="rgb(55,55,55)" stroke="rgb(55,55,55)" stroke-width="1" opacity="1.0"
          d="M 178.5 75.0 L 169.5 85.0 L 178.5 75.0 Z"/>
    <path fill="rgb(205,205,205)" stroke="rgb(205,205,205)" stroke-width="1" opacity="1.0"
          d="M 480.5 75.0 L 489.5 85.0 L 480.5 75.0 Z"/>
    <path fill="rgb(55,55,55)" stroke="rgb(55,55,55)" stroke-width="1" opacity="1.0"
          d="M 463.5 76.0 L 464.5 78.0 L 463.5 76.0 Z"/>
    <path fill="rgb(55,55,55)" stroke="rgb(55,55,55)" stroke-width="1" opacity="1.0"
          d="M 193.5 77.0 L 192.5 79.0 L 193.5 77.0 Z"/>
    <path fill="rgb(205,205,205)" stroke="rgb(205,205,205)" stroke-width="1" opacity="1.0"
          d="M 467.5 80.0 L 477.5 91.0 L 467.5 80.0 Z"/>
    <path fill="rgb(174,174,174)" stroke="rgb(174,174,174)" stroke-width="1" opacity="1.0"
          d="M 189.5 81.0 L 177.5 94.0 L 189.5 81.0 Z"/>
    <path fill="rgb(55,55,55)" stroke="rgb(55,55,55)" stroke-width="1" opacity="1.0"
          d="M 469.5 81.0 L 480.5 93.0 L 469.5 81.0 Z"/>
    <path fill="rgb(55,55,55)" stroke="rgb(55,55,55)" stroke-width="1" opacity="1.0"
          d="M 489.5 85.0 L 490.5 87.0 L 489.5 85.0 Z"/>
    <path fill="rgb(55,55,55)" stroke="rgb(55,55,55)" stroke-width="1" opacity="1.0"
          d="M 165.5 89.0 L 164.5 91.0 L 165.5 89.0 Z"/>
    <path fill="rgb(205,205,205)" stroke="rgb(205,205,205)" stroke-width="1" opacity="1.0"
          d="M 493.5 89.0 L 494.5 91.0 L 493.5 89.0 Z"/>
    <path fill="rgb(55,55,55)" stroke="rgb(55,55,55)" stroke-width="1" opacity="1.0"
          d="M 175.5 95.0 L 174.5 97.0 L 175.5 95.0 Z"/>
    <path fill="rgb(55,55,55)" stroke="rgb(55,55,55)" stroke-width="1" opacity="1.0"
          d="M 498.5 96.0 L 499.5 98.0 L 498.5 96.0 Z"/>
    <path fill="rgb(55,55,55)" stroke="rgb(55,55,55)" stroke-width="1" opacity="1.0"
          d="M 484.5 97.0 L 485.5 99.0 L 484.5 97.0 Z"/>
    <path fill="rgb(55,55,55)" stroke="rgb(55,55,55)" stroke-width="1" opacity="1.0"
          d="M 501.5 100.0 L 502.5 102.0 L 501.5 100.0 Z"/>
    <path fill="rgb(205,205,205)" stroke="rgb(205,205,205)" stroke-width="1" opacity="1.0"
          d="M 170.5 102.0 L 169.5 104.0 L 170.5 102.0 Z"/>
    <path fill="rgb(205,205,205)" stroke="rgb(205,205,205)" stroke-width="1" opacity="1.0"
          d="M 68.5 110.0 L 66.5 113.0 L 68.5 110.0 Z"/>
    <path fill="rgb(134,134,134)" stroke="rgb(134,134,134)" stroke-width="1" opacity="1.0"
          d="M 570.5 112.0 L 573.0 112.5 L 570.5 113.0 L 570.5 112.0 Z"/>
    <path fill="rgb(134,134,134)" stroke="rgb(134,134,134)" stroke-width="1" opacity="1.0"
          d="M 75.5 120.0 L 74.5 122.0 L 75.5 120.0 Z"/>
    <path fill="rgb(246,250,252)" stroke="rgb(246,250,252)" stroke-width="1" opacity="0.9882352941176471"
          d="M 75.5 121.0 L 137.0 137.5 L 133.0 151.5 L 131.0 162.5 L 129.5 191.0 L 105.0 185.5 L 100.0 184.5 L 92.5 184.0 Q 88.3 186.3 89.0 193.5 L 87.5 206.0 L 82.5 244.0 L 73.0 236.5 Q 69.7 233.3 61.5 235.0 L 53.0 242.5 L 49.0 252.5 L 46.0 264.5 Q 47.0 272.5 44.5 277.0 Q 42.9 273.1 36.5 274.0 Q 31.0 276.0 33.0 285.5 L 43.0 308.5 L 49.5 318.0 Q 54.0 322.0 63.5 321.0 Q 70.3 318.8 74.0 313.5 Q 80.5 305.0 83.5 293.0 L 88.0 276.5 L 89.0 266.5 Q 87.8 261.8 90.0 260.5 L 91.0 256.5 L 94.5 230.0 L 96.0 213.5 L 97.0 209.5 L 98.0 201.5 L 99.5 194.0 L 131.0 201.5 L 137.0 226.5 L 112.0 236.5 L 105.5 239.0 L 101.0 242.5 Q 100.2 247.8 103.0 249.5 L 109.0 260.5 L 128.0 296.5 L 122.5 297.0 Q 120.8 294.3 114.5 296.0 L 109.0 297.5 L 100.0 304.5 Q 97.1 309.1 98.0 317.5 Q 100.9 335.6 111.0 346.5 Q 103.0 345.5 100.0 349.5 L 99.0 355.5 L 110.0 364.5 L 123.0 371.5 L 132.5 376.0 Q 136.0 378.5 143.5 377.0 Q 151.1 375.1 155.0 369.5 L 158.5 360.0 L 159.0 349.5 L 156.0 338.5 Q 154.3 326.7 149.0 318.5 L 134.0 286.5 L 121.0 263.5 L 113.0 246.5 L 140.5 236.0 Q 155.3 268.7 180.0 291.5 L 154.0 306.5 L 153.0 313.5 L 188.0 359.5 Q 171.7 358.2 164.0 365.5 Q 158.8 369.8 160.0 380.5 Q 164.6 399.9 178.0 410.5 L 173.5 412.0 L 168.0 414.5 L 167.0 420.5 Q 173.1 428.4 185.0 430.5 L 203.0 436.5 L 0.5 437.0 L 0.0 207.5 L 1.0 207.5 L 6.0 219.5 L 16.5 240.0 Q 21.7 246.8 35.5 245.0 Q 44.1 242.6 48.0 235.5 Q 58.7 221.2 62.0 199.5 L 63.0 192.5 Q 62.3 187.8 64.5 186.0 L 67.0 177.5 L 68.0 164.5 L 69.5 158.0 L 71.5 144.0 L 74.0 127.5 L 75.5 121.0 Z"/>
    <path fill="rgb(95,95,95)" stroke="rgb(95,95,95)" stroke-width="1" opacity="1.0"
          d="M 560.5 122.0 L 562.0 122.5 L 561.5 124.0 L 560.5 122.0 Z"/>
    <path fill="rgb(246,250,252)" stroke="rgb(246,250,252)" stroke-width="1" opacity="0.9882352941176471"
          d="M 556.5 123.0 L 561.0 123.5 L 528.5 164.0 L 527.0 163.5 L 526.5 157.0 L 524.5 149.0 L 518.0 127.5 L 531.5 126.0 L 546.5 125.0 L 556.5 123.0 Z"/>
    <path fill="rgb(205,205,205)" stroke="rgb(205,205,205)" stroke-width="1" opacity="1.0"
          d="M 292.5 146.0 L 299.0 146.5 L 292.5 147.0 L 292.5 146.0 Z"/>
    <path fill="rgb(134,134,134)" stroke="rgb(134,134,134)" stroke-width="1" opacity="1.0"
          d="M 416.5 147.0 L 420.0 147.5 L 416.5 148.0 L 416.5 147.0 Z"/>
    <path fill="rgb(95,95,95)" stroke="rgb(95,95,95)" stroke-width="1" opacity="1.0"
          d="M 420.5 147.0 L 423.0 147.5 L 420.5 148.0 L 420.5 147.0 Z"/>
    <path fill="rgb(55,55,55)" stroke="rgb(55,55,55)" stroke-width="1" opacity="1.0"
          d="M 542.5 147.0 L 541.5 149.0 L 542.5 147.0 Z"/>
    <path fill="rgb(205,205,205)" stroke="rgb(205,205,205)" stroke-width="1" opacity="1.0"
          d="M 552.5 149.0 L 551.5 151.0 L 552.5 149.0 Z"/>
    <path fill="rgb(55,55,55)" stroke="rgb(55,55,55)" stroke-width="1" opacity="1.0"
          d="M 538.5 152.0 L 537.5 154.0 L 538.5 152.0 Z"/>
    <path fill="rgb(95,95,95)" stroke="rgb(95,95,95)" stroke-width="1" opacity="1.0"
          d="M 293.5 154.0 L 299.0 154.5 L 293.5 155.0 L 293.5 154.0 Z"/>
    <path fill="rgb(205,205,205)" stroke="rgb(205,205,205)" stroke-width="1" opacity="1.0"
          d="M 548.5 154.0 L 547.5 156.0 L 548.5 154.0 Z"/>
    <path fill="rgb(246,250,252)" stroke="rgb(246,250,252)" stroke-width="1" opacity="0.9882352941176471"
          d="M 289.5 155.0 Q 310.3 153.7 321.5 162.0 L 335.0 173.5 Q 348.3 187.2 348.0 214.5 L 345.0 229.5 Q 339.3 245.3 327.5 255.0 L 316.5 262.0 L 305.5 265.0 Q 299.6 267.6 289.5 266.0 Q 269.2 261.8 258.0 248.5 Q 249.3 239.2 246.0 224.5 L 244.0 208.5 L 245.0 204.5 L 246.0 196.5 Q 250.4 177.4 263.5 167.0 Q 273.2 157.7 289.5 155.0 Z"/>
    <path fill="rgb(174,174,174)" stroke="rgb(174,174,174)" stroke-width="1" opacity="1.0"
          d="M 416.5 155.0 L 420.0 155.5 L 416.5 156.0 L 416.5 155.0 Z"/>
    <path fill="rgb(246,250,252)" stroke="rgb(246,250,252)" stroke-width="1" opacity="0.9882352941176471"
          d="M 411.5 156.0 Q 429.8 153.7 439.5 160.0 L 445.5 163.0 L 456.0 170.5 L 467.0 186.5 L 470.0 196.5 L 471.5 206.0 L 472.0 213.5 L 469.5 226.0 Q 465.8 241.8 455.5 251.0 L 446.5 258.0 L 439.5 261.0 Q 430.4 267.4 412.5 265.0 Q 391.6 260.4 381.0 245.5 L 373.0 231.5 L 370.5 221.0 L 370.0 200.5 Q 374.9 176.9 391.5 165.0 Q 399.6 158.6 411.5 156.0 Z"/>
    <path fill="rgb(55,55,55)" stroke="rgb(55,55,55)" stroke-width="1" opacity="1.0"
          d="M 534.5 157.0 L 533.5 159.0 L 534.5 157.0 Z"/>
    <path fill="rgb(55,55,55)" stroke="rgb(55,55,55)" stroke-width="1" opacity="1.0"
          d="M 260.5 159.0 L 259.5 161.0 L 260.5 159.0 Z"/>
    <path fill="rgb(205,205,205)" stroke="rgb(205,205,205)" stroke-width="1" opacity="1.0"
          d="M 332.5 159.0 L 333.5 161.0 L 332.5 159.0 Z"/>
    <path fill="rgb(205,205,205)" stroke="rgb(205,205,205)" stroke-width="1" opacity="1.0"
          d="M 544.5 159.0 L 543.5 161.0 L 544.5 159.0 Z"/>
    <path fill="rgb(205,205,205)" stroke="rgb(205,205,205)" stroke-width="1" opacity="1.0"
          d="M 258.5 160.0 L 256.5 163.0 L 258.5 160.0 Z"/>
    <path fill="rgb(55,55,55)" stroke="rgb(55,55,55)" stroke-width="1" opacity="1.0"
          d="M 457.5 161.0 L 458.5 163.0 L 457.5 161.0 Z"/>
    <path fill="rgb(174,174,174)" stroke="rgb(174,174,174)" stroke-width="1" opacity="1.0"
          d="M 27.5 162.0 L 24.5 166.0 L 27.5 162.0 Z"/>
    <path fill="rgb(134,134,134)" stroke="rgb(134,134,134)" stroke-width="1" opacity="1.0"
          d="M 335.5 162.0 L 338.5 166.0 L 335.5 162.0 Z"/>
    <path fill="rgb(55,55,55)" stroke="rgb(55,55,55)" stroke-width="1" opacity="1.0"
          d="M 382.5 162.0 L 378.5 167.0 L 382.5 162.0 Z"/>
    <path fill="rgb(1,1,1)" stroke="rgb(1,1,1)" stroke-width="1" opacity="0.996078431372549"
          d="M 437.5 162.0 Q 446.5 162.0 449.0 168.5 L 450.0 171.5 Q 452.5 175.0 451.0 182.5 Q 449.2 189.7 443.5 193.0 L 436.5 194.0 L 429.0 187.5 Q 425.7 182.8 427.0 173.5 L 433.5 164.0 L 437.5 162.0 Z"/>
    <path fill="rgb(205,205,205)" stroke="rgb(205,205,205)" stroke-width="1" opacity="1.0"
          d="M 459.5 162.0 L 463.5 167.0 L 459.5 162.0 Z"/>
    <path fill="rgb(55,55,55)" stroke="rgb(55,55,55)" stroke-width="1" opacity="1.0"
          d="M 530.5 162.0 L 529.5 164.0 L 530.5 162.0 Z"/>
    <path fill="rgb(174,174,174)" stroke="rgb(174,174,174)" stroke-width="1" opacity="1.0"
          d="M 255.5 163.0 L 253.5 166.0 L 255.5 163.0 Z"/>
    <path fill="rgb(134,134,134)" stroke="rgb(134,134,134)" stroke-width="1" opacity="1.0"
          d="M 432.5 164.0 L 430.5 167.0 L 432.5 164.0 Z"/>
    <path fill="rgb(134,134,134)" stroke="rgb(134,134,134)" stroke-width="1" opacity="1.0"
          d="M 445.5 164.0 L 447.5 167.0 L 445.5 164.0 Z"/>
    <path fill="rgb(205,205,205)" stroke="rgb(205,205,205)" stroke-width="1" opacity="1.0"
          d="M 540.5 164.0 L 539.5 166.0 L 540.5 164.0 Z"/>
    <path fill="rgb(95,95,95)" stroke="rgb(95,95,95)" stroke-width="1" opacity="1.0"
          d="M 51.5 165.0 L 54.5 169.0 L 51.5 165.0 Z"/>
    <path fill="rgb(55,55,55)" stroke="rgb(55,55,55)" stroke-width="1" opacity="1.0"
          d="M 327.5 165.0 L 328.5 167.0 L 327.5 165.0 Z"/>
    <path fill="rgb(205,205,205)" stroke="rgb(205,205,205)" stroke-width="1" opacity="1.0"
          d="M 252.5 166.0 L 251.5 168.0 L 252.5 166.0 Z"/>
    <path fill="rgb(55,55,55)" stroke="rgb(55,55,55)" stroke-width="1" opacity="1.0"
          d="M 263.5 166.0 L 261.5 169.0 L 263.5 166.0 Z"/>
    <path fill="rgb(174,174,174)" stroke="rgb(174,174,174)" stroke-width="1" opacity="1.0"
          d="M 339.5 166.0 L 340.5 168.0 L 339.5 166.0 Z"/>
    <path fill="rgb(95,95,95)" stroke="rgb(95,95,95)" stroke-width="1" opacity="1.0"
          d="M 377.5 167.0 L 376.5 169.0 L 377.5 167.0 Z"/>
    <path fill="rgb(174,174,174)" stroke="rgb(174,174,174)" stroke-width="1" opacity="1.0"
          d="M 388.5 167.0 L 387.5 169.0 L 388.5 167.0 Z"/>
    <path fill="rgb(205,205,205)" stroke="rgb(205,205,205)" stroke-width="1" opacity="1.0"
          d="M 452.5 167.0 L 453.5 169.0 L 452.5 167.0 Z"/>
    <path fill="rgb(55,55,55)" stroke="rgb(55,55,55)" stroke-width="1" opacity="1.0"
          d="M 463.5 167.0 L 464.5 169.0 L 463.5 167.0 Z"/>
    <path fill="rgb(246,250,252)" stroke="rgb(246,250,252)" stroke-width="1" opacity="0.9882352941176471"
          d="M 37.5 168.0 Q 48.3 172.3 54.0 181.5 L 52.0 200.5 L 49.0 211.5 Q 45.0 226.5 34.5 235.0 Q 25.8 236.7 23.0 232.5 L 13.0 212.5 L 14.5 213.0 Q 22.5 214.5 24.0 209.5 L 25.0 189.5 Q 26.6 176.1 34.5 169.0 L 37.5 168.0 Z"/>
    <path fill="rgb(55,55,55)" stroke="rgb(55,55,55)" stroke-width="1" opacity="1.0"
          d="M 251.5 168.0 L 250.5 170.0 L 251.5 168.0 Z"/>
    <path fill="rgb(134,134,134)" stroke="rgb(134,134,134)" stroke-width="1" opacity="1.0"
          d="M 330.5 168.0 L 331.5 170.0 L 330.5 168.0 Z"/>
    <path fill="rgb(55,55,55)" stroke="rgb(55,55,55)" stroke-width="1" opacity="1.0"
          d="M 454.5 168.0 L 457.5 172.0 L 454.5 168.0 Z"/>
    <path fill="rgb(134,134,134)" stroke="rgb(134,134,134)" stroke-width="1" opacity="1.0"
          d="M 33.5 169.0 L 31.5 172.0 L 33.5 169.0 Z"/>
    <path fill="rgb(55,55,55)" stroke="rgb(55,55,55)" stroke-width="1" opacity="1.0"
          d="M 55.5 169.0 L 56.5 171.0 L 55.5 169.0 Z"/>
    <path fill="rgb(1,1,1)" stroke="rgb(1,1,1)" stroke-width="1" opacity="0.996078431372549"
          d="M 305.5 169.0 L 310.5 170.0 L 317.0 174.5 L 319.0 180.5 L 320.0 187.5 Q 318.5 196.0 312.5 200.0 L 305.5 201.0 L 299.0 196.5 L 296.0 190.5 L 295.0 184.5 L 296.5 179.0 L 303.5 170.0 L 305.5 169.0 Z"/>
    <path fill="rgb(205,205,205)" stroke="rgb(205,205,205)" stroke-width="1" opacity="1.0"
          d="M 386.5 169.0 L 384.5 172.0 L 386.5 169.0 Z"/>
    <path fill="rgb(55,55,55)" stroke="rgb(55,55,55)" stroke-width="1" opacity="1.0"
          d="M 259.5 170.0 L 257.5 173.0 L 259.5 170.0 Z"/>
    <path fill="rgb(205,205,205)" stroke="rgb(205,205,205)" stroke-width="1" opacity="1.0"
          d="M 313.5 170.0 L 316.5 174.0 L 313.5 170.0 Z"/>
    <path fill="rgb(95,95,95)" stroke="rgb(95,95,95)" stroke-width="1" opacity="1.0"
          d="M 332.5 170.0 L 334.5 173.0 L 332.5 170.0 Z"/>
    <path fill="rgb(55,55,55)" stroke="rgb(55,55,55)" stroke-width="1" opacity="1.0"
          d="M 301.5 171.0 L 298.5 175.0 L 301.5 171.0 Z"/>
    <path fill="rgb(205,205,205)" stroke="rgb(205,205,205)" stroke-width="1" opacity="1.0"
          d="M 456.5 171.0 L 458.5 174.0 L 456.5 171.0 Z"/>
    <path fill="rgb(205,205,205)" stroke="rgb(205,205,205)" stroke-width="1" opacity="1.0"
          d="M 45.5 172.0 L 50.5 178.0 L 45.5 172.0 Z"/>
    <path fill="rgb(174,174,174)" stroke="rgb(174,174,174)" stroke-width="1" opacity="1.0"
          d="M 383.5 172.0 L 382.5 174.0 L 383.5 172.0 Z"/>
    <path fill="rgb(205,205,205)" stroke="rgb(205,205,205)" stroke-width="1" opacity="1.0"
          d="M 142.5 174.0 L 143.0 189.5 L 142.0 189.5 L 142.5 174.0 Z"/>
    <path fill="rgb(55,55,55)" stroke="rgb(55,55,55)" stroke-width="1" opacity="1.0"
          d="M 516.5 176.0 L 517.0 182.5 L 516.0 182.5 L 516.5 176.0 Z"/>
    <path fill="rgb(134,134,134)" stroke="rgb(134,134,134)" stroke-width="1" opacity="1.0"
          d="M 426.5 177.0 L 427.0 179.5 L 426.0 179.5 L 426.5 177.0 Z"/>
    <path fill="rgb(174,174,174)" stroke="rgb(174,174,174)" stroke-width="1" opacity="1.0"
          d="M 528.5 180.0 L 529.0 184.5 L 528.0 184.5 L 528.5 180.0 Z"/>
    <path fill="rgb(55,55,55)" stroke="rgb(55,55,55)" stroke-width="1" opacity="1.0"
          d="M 130.5 182.0 L 131.0 191.5 L 130.0 191.5 L 130.5 182.0 Z"/>
    <path fill="rgb(95,95,95)" stroke="rgb(95,95,95)" stroke-width="1" opacity="1.0"
          d="M 516.5 183.0 L 517.0 186.5 L 516.0 186.5 L 516.5 183.0 Z"/>
    <path fill="rgb(134,134,134)" stroke="rgb(134,134,134)" stroke-width="1" opacity="1.0"
          d="M 92.5 184.0 L 91.5 186.0 L 92.5 184.0 Z"/>
    <path fill="rgb(134,134,134)" stroke="rgb(134,134,134)" stroke-width="1" opacity="1.0"
          d="M 64.5 185.0 L 63.5 187.0 L 64.5 185.0 Z"/>
    <path fill="rgb(55,55,55)" stroke="rgb(55,55,55)" stroke-width="1" opacity="1.0"
          d="M 430.5 189.0 L 433.5 193.0 L 430.5 189.0 Z"/>
    <path fill="rgb(55,55,55)" stroke="rgb(55,55,55)" stroke-width="1" opacity="1.0"
          d="M 447.5 189.0 L 444.5 193.0 L 447.5 189.0 Z"/>
    <path fill="rgb(205,205,205)" stroke="rgb(205,205,205)" stroke-width="1" opacity="1.0"
          d="M 447.5 190.0 L 445.5 193.0 L 447.5 190.0 Z"/>
    <path fill="rgb(95,95,95)" stroke="rgb(95,95,95)" stroke-width="1" opacity="1.0"
          d="M 354.5 194.0 L 363.0 194.5 L 354.5 195.0 L 354.5 194.0 Z"/>
    <path fill="rgb(134,134,134)" stroke="rgb(134,134,134)" stroke-width="1" opacity="1.0"
          d="M 4.5 196.0 L 7.0 196.5 L 4.5 197.0 L 4.5 196.0 Z"/>
    <path fill="rgb(134,134,134)" stroke="rgb(134,134,134)" stroke-width="1" opacity="1.0"
          d="M 316.5 196.0 L 313.5 200.0 L 316.5 196.0 Z"/>
    <path fill="rgb(246,250,252)" stroke="rgb(246,250,252)" stroke-width="1" opacity="0.9882352941176471"
          d="M 528.5 196.0 L 584.0 216.5 L 556.0 272.5 L 555.0 275.5 Q 555.6 280.1 553.0 281.5 L 548.0 292.5 L 543.0 307.5 Q 539.0 317.0 541.0 332.5 L 547.5 343.0 Q 552.8 348.7 565.5 347.0 L 585.5 336.0 Q 593.8 332.8 599.0 326.5 L 599.5 325.0 L 600.0 436.5 L 212.5 437.0 L 212.5 436.0 Q 220.6 434.6 224.0 428.5 L 226.5 421.0 L 227.0 413.5 Q 223.9 395.6 215.0 383.5 L 206.0 370.5 L 201.0 361.5 L 165.0 311.5 L 189.5 298.0 L 197.0 304.5 Q 199.6 323.4 210.0 334.5 Q 216.5 345.5 226.5 353.0 Q 248.0 371.0 278.0 380.5 L 300.5 387.0 L 323.5 391.0 L 340.0 392.5 L 368.5 393.0 L 371.5 392.0 L 379.5 392.0 L 410.5 387.0 Q 464.8 375.3 496.0 340.5 L 507.0 324.5 L 513.0 308.5 L 513.5 304.0 L 514.0 283.5 L 510.0 270.5 L 507.5 265.0 L 505.0 258.5 Q 523.5 234.0 528.5 196.0 Z"/>
    <path fill="rgb(174,174,174)" stroke="rgb(174,174,174)" stroke-width="1" opacity="1.0"
          d="M 299.5 197.0 L 300.5 199.0 L 299.5 197.0 Z"/>
    <path fill="rgb(134,134,134)" stroke="rgb(134,134,134)" stroke-width="1" opacity="1.0"
          d="M 130.5 200.0 L 131.5 202.0 L 130.5 200.0 Z"/>
    <path fill="rgb(55,55,55)" stroke="rgb(55,55,55)" stroke-width="1" opacity="1.0"
          d="M 0.5 201.0 L 1.0 203.5 L 0.0 203.5 L 0.5 201.0 Z"/>
    <path fill="rgb(55,55,55)" stroke="rgb(55,55,55)" stroke-width="1" opacity="1.0"
          d="M 479.5 206.0 L 480.0 213.5 L 479.0 213.5 L 479.5 206.0 Z"/>
    <path fill="rgb(55,55,55)" stroke="rgb(55,55,55)" stroke-width="1" opacity="1.0"
          d="M 236.5 208.0 L 237.0 210.5 L 236.0 210.5 L 236.5 208.0 Z"/>
    <path fill="rgb(205,205,205)" stroke="rgb(205,205,205)" stroke-width="1" opacity="1.0"
          d="M 369.5 208.0 L 370.0 213.5 L 369.0 213.5 L 369.5 208.0 Z"/>
    <path fill="rgb(246,250,252)" stroke="rgb(246,250,252)" stroke-width="1" opacity="0.9882352941176471"
          d="M 356.5 209.0 L 361.0 209.5 Q 360.5 229.0 368.0 240.5 Q 374.7 254.3 386.5 263.0 L 398.5 269.0 Q 404.0 273.0 413.0 273.5 L 427.5 274.0 Q 451.3 269.8 464.0 254.5 L 471.5 244.0 L 480.0 251.5 L 491.0 265.5 L 496.5 279.0 L 498.5 287.0 L 499.0 299.5 L 497.5 306.0 Q 495.3 316.3 489.5 323.0 Q 483.0 334.5 472.5 342.0 Q 440.3 368.8 387.5 375.0 L 377.0 376.5 L 366.5 377.0 L 354.5 377.0 L 349.5 378.0 Q 347.8 375.3 341.5 377.0 L 328.5 376.0 L 312.5 374.0 Q 289.5 370.0 271.0 361.5 Q 242.3 350.2 224.0 328.5 L 215.5 314.0 L 212.0 302.5 L 211.0 288.5 L 213.0 281.5 L 215.5 273.0 L 221.5 263.0 Q 227.6 252.1 237.5 245.0 L 243.5 242.0 Q 249.2 253.3 258.5 261.0 L 273.0 269.5 L 278.5 272.0 L 288.5 274.0 L 299.5 275.0 L 312.5 272.0 Q 331.6 266.6 342.0 252.5 Q 355.8 237.3 356.5 209.0 Z"/>
    <path fill="rgb(95,95,95)" stroke="rgb(95,95,95)" stroke-width="1" opacity="1.0"
          d="M 361.5 209.0 L 362.0 213.5 L 361.0 213.5 L 361.5 209.0 Z"/>
    <path fill="rgb(55,55,55)" stroke="rgb(55,55,55)" stroke-width="1" opacity="1.0"
          d="M 13.5 211.0 L 12.5 213.0 L 13.5 211.0 Z"/>
    <path fill="rgb(95,95,95)" stroke="rgb(95,95,95)" stroke-width="1" opacity="1.0"
          d="M 236.5 211.0 L 237.0 215.5 L 236.0 215.5 L 236.5 211.0 Z"/>
    <path fill="rgb(205,205,205)" stroke="rgb(205,205,205)" stroke-width="1" opacity="1.0"
          d="M 244.5 212.0 L 245.0 214.5 L 244.0 214.5 L 244.5 212.0 Z"/>
    <path fill="rgb(55,55,55)" stroke="rgb(55,55,55)" stroke-width="1" opacity="1.0"
          d="M 355.5 213.0 L 356.0 215.5 L 355.0 215.5 L 355.5 213.0 Z"/>
    <path fill="rgb(95,95,95)" stroke="rgb(95,95,95)" stroke-width="1" opacity="1.0"
          d="M 583.5 215.0 L 584.5 217.0 L 583.5 215.0 Z"/>
    <path fill="rgb(205,205,205)" stroke="rgb(205,205,205)" stroke-width="1" opacity="1.0"
          d="M 38.5 231.0 L 36.5 234.0 L 38.5 231.0 Z"/>
    <path fill="rgb(55,55,55)" stroke="rgb(55,55,55)" stroke-width="1" opacity="1.0"
          d="M 38.5 232.0 L 37.5 234.0 L 38.5 232.0 Z"/>
    <path fill="rgb(55,55,55)" stroke="rgb(55,55,55)" stroke-width="1" opacity="1.0"
          d="M 480.5 232.0 L 481.5 234.0 L 480.5 232.0 Z"/>
    <path fill="rgb(205,205,205)" stroke="rgb(205,205,205)" stroke-width="1" opacity="1.0"
          d="M 481.5 232.0 L 483.5 235.0 L 481.5 232.0 Z"/>
    <path fill="rgb(55,55,55)" stroke="rgb(55,55,55)" stroke-width="1" opacity="1.0"
          d="M 228.5 233.0 L 227.5 235.0 L 228.5 233.0 Z"/>
    <path fill="rgb(205,205,205)" stroke="rgb(205,205,205)" stroke-width="1" opacity="1.0"
          d="M 226.5 234.0 L 224.5 237.0 L 226.5 234.0 Z"/>
    <path fill="rgb(205,205,205)" stroke="rgb(205,205,205)" stroke-width="1" opacity="1.0"
          d="M 29.5 235.0 L 32.0 235.5 L 29.5 236.0 L 29.5 235.0 Z"/>
    <path fill="rgb(134,134,134)" stroke="rgb(134,134,134)" stroke-width="1" opacity="1.0"
          d="M 485.5 236.0 L 486.5 238.0 L 485.5 236.0 Z"/>
    <path fill="rgb(55,55,55)" stroke="rgb(55,55,55)" stroke-width="1" opacity="1.0"
          d="M 45.5 237.0 L 43.5 240.0 L 45.5 237.0 Z"/>
    <path fill="rgb(174,174,174)" stroke="rgb(174,174,174)" stroke-width="1" opacity="1.0"
          d="M 223.5 237.0 L 222.5 239.0 L 223.5 237.0 Z"/>
    <path fill="rgb(95,95,95)" stroke="rgb(95,95,95)" stroke-width="1" opacity="1.0"
          d="M 57.5 238.0 L 56.5 240.0 L 57.5 238.0 Z"/>
    <path fill="rgb(134,134,134)" stroke="rgb(134,134,134)" stroke-width="1" opacity="1.0"
          d="M 221.5 239.0 L 220.5 241.0 L 221.5 239.0 Z"/>
    <path fill="rgb(55,55,55)" stroke="rgb(55,55,55)" stroke-width="1" opacity="1.0"
          d="M 488.5 239.0 L 490.5 242.0 L 488.5 239.0 Z"/>
    <path fill="rgb(95,95,95)" stroke="rgb(95,95,95)" stroke-width="1" opacity="1.0"
          d="M 78.5 240.0 Q 81.3 245.4 84.0 243.5 Q 82.8 246.3 81.5 244.0 L 78.5 240.0 Z"/>
    <path fill="rgb(95,95,95)" stroke="rgb(95,95,95)" stroke-width="1" opacity="1.0"
          d="M 491.5 242.0 L 492.5 244.0 L 491.5 242.0 Z"/>
    <path fill="rgb(174,174,174)" stroke="rgb(174,174,174)" stroke-width="1" opacity="1.0"
          d="M 217.5 243.0 L 216.5 245.0 L 217.5 243.0 Z"/>
    <path fill="rgb(55,55,55)" stroke="rgb(55,55,55)" stroke-width="1" opacity="1.0"
          d="M 31.5 244.0 L 34.0 244.5 L 31.5 245.0 L 31.5 244.0 Z"/>
    <path fill="rgb(246,250,252)" stroke="rgb(246,250,252)" stroke-width="1" opacity="0.9882352941176471"
          d="M 65.5 244.0 Q 74.8 246.7 79.0 254.5 L 80.0 260.5 L 79.0 265.5 L 78.0 275.5 L 73.0 292.5 Q 70.7 303.7 63.5 310.0 L 57.5 311.0 L 54.0 308.5 L 46.0 290.5 Q 53.2 291.2 55.0 286.5 L 56.0 263.5 L 58.0 257.5 Q 59.1 248.1 65.5 244.0 Z"/>
    <path fill="rgb(205,205,205)" stroke="rgb(205,205,205)" stroke-width="1" opacity="1.0"
          d="M 215.5 245.0 L 214.5 247.0 L 215.5 245.0 Z"/>
    <path fill="rgb(95,95,95)" stroke="rgb(95,95,95)" stroke-width="1" opacity="1.0"
          d="M 236.5 245.0 L 235.5 247.0 L 236.5 245.0 Z"/>
    <path fill="rgb(174,174,174)" stroke="rgb(174,174,174)" stroke-width="1" opacity="1.0"
          d="M 494.5 245.0 L 495.5 247.0 L 494.5 245.0 Z"/>
    <path fill="rgb(55,55,55)" stroke="rgb(55,55,55)" stroke-width="1" opacity="1.0"
          d="M 215.5 246.0 L 213.5 249.0 L 215.5 246.0 Z"/>
    <path fill="rgb(174,174,174)" stroke="rgb(174,174,174)" stroke-width="1" opacity="1.0"
          d="M 474.5 246.0 L 475.5 248.0 L 474.5 246.0 Z"/>
    <path fill="rgb(205,205,205)" stroke="rgb(205,205,205)" stroke-width="1" opacity="1.0"
          d="M 72.5 247.0 L 75.5 251.0 L 72.5 247.0 Z"/>
    <path fill="rgb(134,134,134)" stroke="rgb(134,134,134)" stroke-width="1" opacity="1.0"
          d="M 234.5 247.0 L 233.5 249.0 L 234.5 247.0 Z"/>
    <path fill="rgb(55,55,55)" stroke="rgb(55,55,55)" stroke-width="1" opacity="1.0"
          d="M 335.5 247.0 L 334.5 249.0 L 335.5 247.0 Z"/>
    <path fill="rgb(205,205,205)" stroke="rgb(205,205,205)" stroke-width="1" opacity="1.0"
          d="M 458.5 247.0 L 456.5 250.0 L 458.5 247.0 Z"/>
    <path fill="rgb(55,55,55)" stroke="rgb(55,55,55)" stroke-width="1" opacity="1.0"
          d="M 257.5 248.0 L 260.5 252.0 L 257.5 248.0 Z"/>
    <path fill="rgb(205,205,205)" stroke="rgb(205,205,205)" stroke-width="1" opacity="1.0"
          d="M 476.5 248.0 L 477.5 250.0 L 476.5 248.0 Z"/>
    <path fill="rgb(174,174,174)" stroke="rgb(174,174,174)" stroke-width="1" opacity="1.0"
          d="M 232.5 249.0 L 231.5 251.0 L 232.5 249.0 Z"/>
    <path fill="rgb(95,95,95)" stroke="rgb(95,95,95)" stroke-width="1" opacity="1.0"
          d="M 333.5 249.0 L 332.5 251.0 L 333.5 249.0 Z"/>
    <path fill="rgb(205,205,205)" stroke="rgb(205,205,205)" stroke-width="1" opacity="1.0"
          d="M 384.5 249.0 L 387.5 253.0 L 384.5 249.0 Z"/>
    <path fill="rgb(55,55,55)" stroke="rgb(55,55,55)" stroke-width="1" opacity="1.0"
          d="M 478.5 249.0 L 480.5 252.0 L 478.5 249.0 Z"/>
    <path fill="rgb(55,55,55)" stroke="rgb(55,55,55)" stroke-width="1" opacity="1.0"
          d="M 456.5 250.0 L 455.5 252.0 L 456.5 250.0 Z"/>
    <path fill="rgb(205,205,205)" stroke="rgb(205,205,205)" stroke-width="1" opacity="1.0"
          d="M 230.5 251.0 L 229.5 253.0 L 230.5 251.0 Z"/>
    <path fill="rgb(205,205,205)" stroke="rgb(205,205,205)" stroke-width="1" opacity="1.0"
          d="M 454.5 251.0 L 452.5 254.0 L 454.5 251.0 Z"/>
    <path fill="rgb(95,95,95)" stroke="rgb(95,95,95)" stroke-width="1" opacity="1.0"
          d="M 330.5 252.0 L 329.5 254.0 L 330.5 252.0 Z"/>
    <path fill="rgb(205,205,205)" stroke="rgb(205,205,205)" stroke-width="1" opacity="1.0"
          d="M 341.5 252.0 L 340.5 254.0 L 341.5 252.0 Z"/>
    <path fill="rgb(55,55,55)" stroke="rgb(55,55,55)" stroke-width="1" opacity="1.0"
          d="M 464.5 252.0 L 462.5 255.0 L 464.5 252.0 Z"/>
    <path fill="rgb(205,205,205)" stroke="rgb(205,205,205)" stroke-width="1" opacity="1.0"
          d="M 480.5 252.0 L 481.5 254.0 L 480.5 252.0 Z"/>
    <path fill="rgb(205,205,205)" stroke="rgb(205,205,205)" stroke-width="1" opacity="1.0"
          d="M 251.5 253.0 L 253.5 256.0 L 251.5 253.0 Z"/>
    <path fill="rgb(55,55,55)" stroke="rgb(55,55,55)" stroke-width="1" opacity="1.0"
          d="M 262.5 253.0 L 263.5 255.0 L 262.5 253.0 Z"/>
    <path fill="rgb(55,55,55)" stroke="rgb(55,55,55)" stroke-width="1" opacity="1.0"
          d="M 377.5 253.0 L 382.5 259.0 L 377.5 253.0 Z"/>
    <path fill="rgb(55,55,55)" stroke="rgb(55,55,55)" stroke-width="1" opacity="1.0"
          d="M 328.5 254.0 L 327.5 256.0 L 328.5 254.0 Z"/>
    <path fill="rgb(205,205,205)" stroke="rgb(205,205,205)" stroke-width="1" opacity="1.0"
          d="M 463.5 254.0 L 459.5 259.0 L 463.5 254.0 Z"/>
    <path fill="rgb(174,174,174)" stroke="rgb(174,174,174)" stroke-width="1" opacity="1.0"
          d="M 482.5 254.0 L 483.5 256.0 L 482.5 254.0 Z"/>
    <path fill="rgb(134,134,134)" stroke="rgb(134,134,134)" stroke-width="1" opacity="1.0"
          d="M 338.5 255.0 L 335.5 259.0 L 338.5 255.0 Z"/>
    <path fill="rgb(55,55,55)" stroke="rgb(55,55,55)" stroke-width="1" opacity="1.0"
          d="M 80.5 256.0 L 81.0 258.5 L 80.0 258.5 L 80.5 256.0 Z"/>
    <path fill="rgb(55,55,55)" stroke="rgb(55,55,55)" stroke-width="1" opacity="1.0"
          d="M 225.5 256.0 L 223.5 259.0 L 225.5 256.0 Z"/>
    <path fill="rgb(174,174,174)" stroke="rgb(174,174,174)" stroke-width="1" opacity="1.0"
          d="M 254.5 256.0 L 256.5 259.0 L 254.5 256.0 Z"/>
    <path fill="rgb(55,55,55)" stroke="rgb(55,55,55)" stroke-width="1" opacity="1.0"
          d="M 459.5 257.0 L 457.5 260.0 L 459.5 257.0 Z"/>
    <path fill="rgb(205,205,205)" stroke="rgb(205,205,205)" stroke-width="1" opacity="1.0"
          d="M 224.5 258.0 L 223.5 260.0 L 224.5 258.0 Z"/>
    <path fill="rgb(205,205,205)" stroke="rgb(205,205,205)" stroke-width="1" opacity="1.0"
          d="M 257.5 259.0 L 258.5 261.0 L 257.5 259.0 Z"/>
    <path fill="rgb(55,55,55)" stroke="rgb(55,55,55)" stroke-width="1" opacity="1.0"
          d="M 259.5 260.0 L 260.5 262.0 L 259.5 260.0 Z"/>
    <path fill="rgb(205,205,205)" stroke="rgb(205,205,205)" stroke-width="1" opacity="1.0"
          d="M 333.5 260.0 L 332.5 262.0 L 333.5 260.0 Z"/>
    <path fill="rgb(55,55,55)" stroke="rgb(55,55,55)" stroke-width="1" opacity="1.0"
          d="M 171.5 263.0 L 172.5 265.0 L 171.5 263.0 Z"/>
    <path fill="rgb(174,174,174)" stroke="rgb(174,174,174)" stroke-width="1" opacity="1.0"
          d="M 417.5 265.0 L 425.0 265.5 L 417.5 266.0 L 417.5 265.0 Z"/>
    <path fill="rgb(95,95,95)" stroke="rgb(95,95,95)" stroke-width="1" opacity="1.0"
          d="M 293.5 266.0 L 300.0 266.5 L 293.5 267.0 L 293.5 266.0 Z"/>
    <path fill="rgb(134,134,134)" stroke="rgb(134,134,134)" stroke-width="1" opacity="1.0"
          d="M 569.5 266.0 L 570.5 268.0 L 569.5 266.0 Z"/>
    <path fill="rgb(55,55,55)" stroke="rgb(55,55,55)" stroke-width="1" opacity="1.0"
          d="M 578.5 266.0 L 581.0 266.5 L 578.5 267.0 L 578.5 266.0 Z"/>
    <path fill="rgb(95,95,95)" stroke="rgb(95,95,95)" stroke-width="1" opacity="1.0"
          d="M 581.5 266.0 L 585.0 266.5 L 581.5 267.0 L 581.5 266.0 Z"/>
    <path fill="rgb(55,55,55)" stroke="rgb(55,55,55)" stroke-width="1" opacity="1.0"
          d="M 161.5 269.0 L 162.5 271.0 L 161.5 269.0 Z"/>
    <path fill="rgb(134,134,134)" stroke="rgb(134,134,134)" stroke-width="1" opacity="1.0"
          d="M 593.5 269.0 L 595.5 272.0 L 593.5 269.0 Z"/>
    <path fill="rgb(95,95,95)" stroke="rgb(95,95,95)" stroke-width="1" opacity="1.0"
          d="M 177.5 270.0 L 189.5 283.0 L 177.5 270.0 Z"/>
    <path fill="rgb(205,205,205)" stroke="rgb(205,205,205)" stroke-width="1" opacity="1.0"
          d="M 45.5 273.0 L 46.0 277.5 L 45.0 277.5 L 45.5 273.0 Z"/>
    <path fill="rgb(134,134,134)" stroke="rgb(134,134,134)" stroke-width="1" opacity="1.0"
          d="M 420.5 273.0 L 425.0 273.5 L 420.5 274.0 L 420.5 273.0 Z"/>
    <path fill="rgb(205,205,205)" stroke="rgb(205,205,205)" stroke-width="1" opacity="1.0"
          d="M 293.5 274.0 L 300.0 274.5 L 293.5 275.0 L 293.5 274.0 Z"/>
    <path fill="rgb(95,95,95)" stroke="rgb(95,95,95)" stroke-width="1" opacity="1.0"
          d="M 35.5 275.0 L 34.5 277.0 L 35.5 275.0 Z"/>
    <path fill="rgb(134,134,134)" stroke="rgb(134,134,134)" stroke-width="1" opacity="1.0"
          d="M 555.5 275.0 L 556.0 277.5 L 555.0 277.5 L 555.5 275.0 Z"/>
    <path fill="rgb(174,174,174)" stroke="rgb(174,174,174)" stroke-width="1" opacity="1.0"
          d="M 578.5 275.0 L 584.0 275.5 L 578.5 276.0 L 578.5 275.0 Z"/>
    <path fill="rgb(205,205,205)" stroke="rgb(205,205,205)" stroke-width="1" opacity="1.0"
          d="M 166.5 276.0 L 167.5 278.0 L 166.5 276.0 Z"/>
    <path fill="rgb(246,250,252)" stroke="rgb(246,250,252)" stroke-width="1" opacity="0.9882352941176471"
          d="M 574.5 276.0 L 583.5 276.0 Q 589.3 275.3 590.0 279.5 Q 590.5 296.5 583.0 305.5 L 578.0 313.5 L 576.0 316.5 Q 573.8 317.8 575.0 322.5 Q 576.4 326.6 582.0 326.5 L 560.5 338.0 L 556.5 337.0 L 552.0 333.5 Q 549.1 328.9 550.0 320.5 L 553.0 308.5 Q 556.9 290.4 566.5 278.0 L 574.5 276.0 Z"/>
    <path fill="rgb(1,1,1)" stroke="rgb(1,1,1)" stroke-width="1" opacity="0.996078431372549"
          d="M 473.5 277.0 L 479.0 278.5 L 480.0 281.5 L 477.5 285.0 L 453.0 299.5 Q 454.5 305.0 452.0 306.5 L 450.5 311.0 L 447.0 320.5 Q 446.1 327.6 441.5 331.0 L 438.0 329.5 L 429.5 310.0 Q 424.0 309.5 422.0 312.5 L 423.0 316.5 L 416.0 334.5 Q 415.4 340.4 411.5 343.0 Q 406.5 343.5 406.0 339.5 L 398.5 321.0 L 396.0 327.5 L 391.0 344.5 L 389.0 351.5 L 386.5 355.0 Q 381.8 355.8 381.0 352.5 L 374.5 334.0 L 373.0 334.5 L 369.5 345.0 Q 368.6 351.1 364.5 354.0 Q 360.5 354.5 360.0 351.5 L 351.5 332.0 L 341.5 367.0 L 336.5 368.0 Q 331.9 362.6 330.5 354.0 L 323.5 336.0 L 321.0 336.5 L 311.5 360.0 Q 306.8 360.8 306.0 357.5 L 296.5 338.0 Q 283.8 339.7 275.5 337.0 Q 263.8 336.7 256.5 332.0 Q 254.3 336.8 247.5 337.0 Q 244.3 336.3 245.0 331.5 L 250.0 327.5 L 251.0 322.5 L 249.0 315.5 L 248.0 307.5 L 252.5 306.0 Q 256.9 308.1 257.0 314.5 L 259.5 325.0 L 266.5 327.0 L 279.5 329.0 L 296.5 330.0 Q 297.8 327.8 302.5 329.0 L 316.5 328.0 L 338.5 325.0 L 373.5 318.0 Q 404.2 310.7 431.5 300.0 L 451.5 291.0 Q 464.5 286.0 473.5 277.0 Z"/>
    <path fill="rgb(205,205,205)" stroke="rgb(205,205,205)" stroke-width="1" opacity="1.0"
          d="M 478.5 277.0 L 479.5 279.0 L 478.5 277.0 Z"/>
    <path fill="rgb(134,134,134)" stroke="rgb(134,134,134)" stroke-width="1" opacity="1.0"
          d="M 168.5 278.0 L 180.5 291.0 L 168.5 278.0 Z"/>
    <path fill="rgb(55,55,55)" stroke="rgb(55,55,55)" stroke-width="1" opacity="1.0"
          d="M 54.5 282.0 L 55.0 284.5 L 54.0 284.5 L 54.5 282.0 Z"/>
    <path fill="rgb(134,134,134)" stroke="rgb(134,134,134)" stroke-width="1" opacity="1.0"
          d="M 590.5 282.0 L 591.0 284.5 L 590.0 284.5 L 590.5 282.0 Z"/>
    <path fill="rgb(205,205,205)" stroke="rgb(205,205,205)" stroke-width="1" opacity="1.0"
          d="M 191.5 283.0 L 192.5 285.0 L 191.5 283.0 Z"/>
    <path fill="rgb(134,134,134)" stroke="rgb(134,134,134)" stroke-width="1" opacity="1.0"
          d="M 599.5 284.0 L 600.0 286.5 L 599.0 286.5 L 599.5 284.0 Z"/>
    <path fill="rgb(55,55,55)" stroke="rgb(55,55,55)" stroke-width="1" opacity="1.0"
          d="M 499.5 288.0 L 500.0 291.5 L 499.0 291.5 L 499.5 288.0 Z"/>
    <path fill="rgb(55,55,55)" stroke="rgb(55,55,55)" stroke-width="1" opacity="1.0"
          d="M 210.5 289.0 L 211.0 296.5 L 210.0 296.5 L 210.5 289.0 Z"/>
    <path fill="rgb(246,250,252)" stroke="rgb(246,250,252)" stroke-width="1" opacity="0.9882352941176471"
          d="M 599.5 289.0 L 600.0 319.5 L 599.0 319.5 L 598.5 318.0 Q 595.0 315.0 588.0 315.5 Q 597.1 305.6 599.5 289.0 Z"/>
    <path fill="rgb(95,95,95)" stroke="rgb(95,95,95)" stroke-width="1" opacity="1.0"
          d="M 499.5 292.0 L 500.0 296.5 L 499.0 296.5 L 499.5 292.0 Z"/>
    <path fill="rgb(205,205,205)" stroke="rgb(205,205,205)" stroke-width="1" opacity="1.0"
          d="M 114.5 296.0 L 117.0 296.5 L 114.5 297.0 L 114.5 296.0 Z"/>
    <path fill="rgb(174,174,174)" stroke="rgb(174,174,174)" stroke-width="1" opacity="1.0"
          d="M 117.5 296.0 L 121.0 296.5 L 117.5 297.0 L 117.5 296.0 Z"/>
    <path fill="rgb(55,55,55)" stroke="rgb(55,55,55)" stroke-width="1" opacity="1.0"
          d="M 189.5 297.0 L 190.5 299.0 L 189.5 297.0 Z"/>
    <path fill="rgb(55,55,55)" stroke="rgb(55,55,55)" stroke-width="1" opacity="1.0"
          d="M 104.5 300.0 L 102.5 303.0 L 104.5 300.0 Z"/>
    <path fill="rgb(55,55,55)" stroke="rgb(55,55,55)" stroke-width="1" opacity="1.0"
          d="M 194.5 301.0 L 195.5 303.0 L 194.5 301.0 Z"/>
    <path fill="rgb(134,134,134)" stroke="rgb(134,134,134)" stroke-width="1" opacity="1.0"
          d="M 453.5 301.0 L 454.0 303.5 L 453.0 303.5 L 453.5 301.0 Z"/>
    <path fill="rgb(246,250,252)" stroke="rgb(246,250,252)" stroke-width="1" opacity="0.9882352941176471"
          d="M 443.5 304.0 L 445.0 304.5 L 440.5 316.0 L 437.0 307.5 L 443.5 304.0 Z"/>
    <path fill="rgb(55,55,55)" stroke="rgb(55,55,55)" stroke-width="1" opacity="1.0"
          d="M 115.5 305.0 L 118.0 305.5 L 115.5 306.0 L 115.5 305.0 Z"/>
    <path fill="rgb(55,55,55)" stroke="rgb(55,55,55)" stroke-width="1" opacity="1.0"
          d="M 67.5 306.0 L 66.5 308.0 L 67.5 306.0 Z"/>
    <path fill="rgb(246,250,252)" stroke="rgb(246,250,252)" stroke-width="1" opacity="0.9882352941176471"
          d="M 113.5 306.0 L 124.5 307.0 L 133.0 309.5 L 143.0 329.5 L 147.0 341.5 L 148.5 349.0 L 149.0 359.5 L 144.5 366.0 L 135.5 367.0 L 118.0 357.5 L 123.0 354.5 L 124.0 348.5 L 113.5 332.0 Q 107.4 324.6 108.0 310.5 L 113.5 306.0 Z"/>
    <path fill="rgb(55,55,55)" stroke="rgb(55,55,55)" stroke-width="1" opacity="1.0"
          d="M 155.5 306.0 L 154.5 308.0 L 155.5 306.0 Z"/>
    <path fill="rgb(55,55,55)" stroke="rgb(55,55,55)" stroke-width="1" opacity="1.0"
          d="M 253.5 306.0 L 254.5 308.0 L 253.5 306.0 Z"/>
    <path fill="rgb(205,205,205)" stroke="rgb(205,205,205)" stroke-width="1" opacity="1.0"
          d="M 110.5 307.0 L 109.5 309.0 L 110.5 307.0 Z"/>
    <path fill="rgb(95,95,95)" stroke="rgb(95,95,95)" stroke-width="1" opacity="1.0"
          d="M 65.5 308.0 L 64.5 310.0 L 65.5 308.0 Z"/>
    <path fill="rgb(134,134,134)" stroke="rgb(134,134,134)" stroke-width="1" opacity="1.0"
          d="M 58.5 311.0 L 61.0 311.5 L 58.5 312.0 L 58.5 311.0 Z"/>
    <path fill="rgb(95,95,95)" stroke="rgb(95,95,95)" stroke-width="1" opacity="1.0"
          d="M 107.5 312.0 L 108.0 314.5 L 107.0 314.5 L 107.5 312.0 Z"/>
    <path fill="rgb(205,205,205)" stroke="rgb(205,205,205)" stroke-width="1" opacity="1.0"
          d="M 73.5 313.0 L 69.5 318.0 L 73.5 313.0 Z"/>
    <path fill="rgb(55,55,55)" stroke="rgb(55,55,55)" stroke-width="1" opacity="1.0"
          d="M 414.5 314.0 L 416.0 314.5 L 415.5 316.0 L 414.5 314.0 Z"/>
    <path fill="rgb(174,174,174)" stroke="rgb(174,174,174)" stroke-width="1" opacity="1.0"
          d="M 47.5 315.0 L 48.5 317.0 L 47.5 315.0 Z"/>
    <path fill="rgb(205,205,205)" stroke="rgb(205,205,205)" stroke-width="1" opacity="1.0"
          d="M 413.5 315.0 L 414.5 317.0 L 413.5 315.0 Z"/>
    <path fill="rgb(246,250,252)" stroke="rgb(246,250,252)" stroke-width="1" opacity="0.9882352941176471"
          d="M 414.5 315.0 L 414.0 316.5 L 410.5 327.0 L 409.0 326.5 L 406.0 318.5 L 414.5 315.0 Z"/>
    <path fill="rgb(174,174,174)" stroke="rgb(174,174,174)" stroke-width="1" opacity="1.0"
          d="M 590.5 316.0 L 594.0 316.5 L 590.5 317.0 L 590.5 316.0 Z"/>
    <path fill="rgb(134,134,134)" stroke="rgb(134,134,134)" stroke-width="1" opacity="1.0"
          d="M 575.5 318.0 L 576.0 321.5 L 575.0 321.5 L 575.5 318.0 Z"/>
    <path fill="rgb(95,95,95)" stroke="rgb(95,95,95)" stroke-width="1" opacity="1.0"
          d="M 58.5 320.0 L 61.0 320.5 L 58.5 321.0 L 58.5 320.0 Z"/>
    <path fill="rgb(55,55,55)" stroke="rgb(55,55,55)" stroke-width="1" opacity="1.0"
          d="M 398.5 321.0 L 397.5 323.0 L 398.5 321.0 Z"/>
    <path fill="rgb(55,55,55)" stroke="rgb(55,55,55)" stroke-width="1" opacity="1.0"
          d="M 250.5 322.0 L 251.0 324.5 L 250.0 324.5 L 250.5 322.0 Z"/>
    <path fill="rgb(246,250,252)" stroke="rgb(246,250,252)" stroke-width="1" opacity="0.9882352941176471"
          d="M 387.5 323.0 L 388.0 325.5 L 384.5 336.0 L 381.0 325.5 L 387.5 323.0 Z"/>
    <path fill="rgb(134,134,134)" stroke="rgb(134,134,134)" stroke-width="1" opacity="1.0"
          d="M 381.5 324.0 L 380.5 326.0 L 381.5 324.0 Z"/>
    <path fill="rgb(174,174,174)" stroke="rgb(174,174,174)" stroke-width="1" opacity="1.0"
          d="M 598.5 326.0 L 597.5 328.0 L 598.5 326.0 Z"/>
    <path fill="rgb(205,205,205)" stroke="rgb(205,205,205)" stroke-width="1" opacity="1.0"
          d="M 303.5 328.0 L 306.0 328.5 L 303.5 329.0 L 303.5 328.0 Z"/>
    <path fill="rgb(55,55,55)" stroke="rgb(55,55,55)" stroke-width="1" opacity="1.0"
          d="M 486.5 328.0 L 485.5 330.0 L 486.5 328.0 Z"/>
    <path fill="rgb(205,205,205)" stroke="rgb(205,205,205)" stroke-width="1" opacity="1.0"
          d="M 596.5 328.0 L 595.5 330.0 L 596.5 328.0 Z"/>
    <path fill="rgb(55,55,55)" stroke="rgb(55,55,55)" stroke-width="1" opacity="1.0"
          d="M 285.5 329.0 L 290.0 329.5 L 285.5 330.0 L 285.5 329.0 Z"/>
    <path fill="rgb(55,55,55)" stroke="rgb(55,55,55)" stroke-width="1" opacity="1.0"
          d="M 292.5 329.0 L 297.0 329.5 L 292.5 330.0 L 292.5 329.0 Z"/>
    <path fill="rgb(246,250,252)" stroke="rgb(246,250,252)" stroke-width="1" opacity="0.9882352941176471"
          d="M 362.5 329.0 L 367.0 329.5 L 363.5 339.0 L 360.0 330.5 L 362.5 329.0 Z"/>
    <path fill="rgb(205,205,205)" stroke="rgb(205,205,205)" stroke-width="1" opacity="1.0"
          d="M 437.5 329.0 L 438.5 331.0 L 437.5 329.0 Z"/>
    <path fill="rgb(55,55,55)" stroke="rgb(55,55,55)" stroke-width="1" opacity="1.0"
          d="M 594.5 329.0 L 593.5 331.0 L 594.5 329.0 Z"/>
    <path fill="rgb(95,95,95)" stroke="rgb(95,95,95)" stroke-width="1" opacity="1.0"
          d="M 225.5 330.0 L 226.5 332.0 L 225.5 330.0 Z"/>
    <path fill="rgb(134,134,134)" stroke="rgb(134,134,134)" stroke-width="1" opacity="1.0"
          d="M 483.5 331.0 L 482.5 333.0 L 483.5 331.0 Z"/>
    <path fill="rgb(134,134,134)" stroke="rgb(134,134,134)" stroke-width="1" opacity="1.0"
          d="M 244.5 332.0 L 245.0 334.5 L 244.0 334.5 L 244.5 332.0 Z"/>
    <path fill="rgb(55,55,55)" stroke="rgb(55,55,55)" stroke-width="1" opacity="1.0"
          d="M 256.5 332.0 L 254.5 335.0 L 256.5 332.0 Z"/>
    <path fill="rgb(174,174,174)" stroke="rgb(174,174,174)" stroke-width="1" opacity="1.0"
          d="M 228.5 333.0 L 229.5 335.0 L 228.5 333.0 Z"/>
    <path fill="rgb(134,134,134)" stroke="rgb(134,134,134)" stroke-width="1" opacity="1.0"
          d="M 351.5 333.0 L 352.5 335.0 L 351.5 333.0 Z"/>
    <path fill="rgb(246,250,252)" stroke="rgb(246,250,252)" stroke-width="1" opacity="0.9882352941176471"
          d="M 337.5 334.0 L 342.0 334.5 L 339.5 343.0 L 337.5 348.0 L 333.0 335.5 L 337.5 334.0 Z"/>
    <path fill="rgb(205,205,205)" stroke="rgb(205,205,205)" stroke-width="1" opacity="1.0"
          d="M 480.5 334.0 L 479.5 336.0 L 480.5 334.0 Z"/>
    <path fill="rgb(95,95,95)" stroke="rgb(95,95,95)" stroke-width="1" opacity="1.0"
          d="M 552.5 334.0 L 553.5 336.0 L 552.5 334.0 Z"/>
    <path fill="rgb(205,205,205)" stroke="rgb(205,205,205)" stroke-width="1" opacity="1.0"
          d="M 230.5 335.0 L 231.5 337.0 L 230.5 335.0 Z"/>
    <path fill="rgb(205,205,205)" stroke="rgb(205,205,205)" stroke-width="1" opacity="1.0"
          d="M 322.5 336.0 L 321.5 338.0 L 322.5 336.0 Z"/>
    <path fill="rgb(174,174,174)" stroke="rgb(174,174,174)" stroke-width="1" opacity="1.0"
          d="M 478.5 336.0 L 476.5 339.0 L 478.5 336.0 Z"/>
    <path fill="rgb(174,174,174)" stroke="rgb(174,174,174)" stroke-width="1" opacity="1.0"
          d="M 232.5 337.0 L 233.5 339.0 L 232.5 337.0 Z"/>
    <path fill="rgb(55,55,55)" stroke="rgb(55,55,55)" stroke-width="1" opacity="1.0"
          d="M 213.5 338.0 L 214.5 340.0 L 213.5 338.0 Z"/>
    <path fill="rgb(205,205,205)" stroke="rgb(205,205,205)" stroke-width="1" opacity="1.0"
          d="M 284.5 338.0 L 288.0 338.5 L 284.5 339.0 L 284.5 338.0 Z"/>
    <path fill="rgb(174,174,174)" stroke="rgb(174,174,174)" stroke-width="1" opacity="1.0"
          d="M 288.5 338.0 L 294.0 338.5 L 288.5 339.0 L 288.5 338.0 Z"/>
    <path fill="rgb(246,250,252)" stroke="rgb(246,250,252)" stroke-width="1" opacity="0.9882352941176471"
          d="M 305.5 338.0 L 313.0 338.5 L 309.5 346.0 L 305.5 338.0 Z"/>
    <path fill="rgb(55,55,55)" stroke="rgb(55,55,55)" stroke-width="1" opacity="1.0"
          d="M 496.5 338.0 L 495.5 340.0 L 496.5 338.0 Z"/>
    <path fill="rgb(134,134,134)" stroke="rgb(134,134,134)" stroke-width="1" opacity="1.0"
          d="M 475.5 339.0 L 474.5 341.0 L 475.5 339.0 Z"/>
    <path fill="rgb(205,205,205)" stroke="rgb(205,205,205)" stroke-width="1" opacity="1.0"
          d="M 214.5 340.0 L 215.5 342.0 L 214.5 340.0 Z"/>
    <path fill="rgb(95,95,95)" stroke="rgb(95,95,95)" stroke-width="1" opacity="1.0"
          d="M 235.5 340.0 L 236.5 342.0 L 235.5 340.0 Z"/>
    <path fill="rgb(205,205,205)" stroke="rgb(205,205,205)" stroke-width="1" opacity="1.0"
          d="M 495.5 340.0 L 494.5 342.0 L 495.5 340.0 Z"/>
    <path fill="rgb(55,55,55)" stroke="rgb(55,55,55)" stroke-width="1" opacity="1.0"
          d="M 407.5 341.0 L 408.5 343.0 L 407.5 341.0 Z"/>
    <path fill="rgb(55,55,55)" stroke="rgb(55,55,55)" stroke-width="1" opacity="1.0"
          d="M 413.5 341.0 L 412.5 343.0 L 413.5 341.0 Z"/>
    <path fill="rgb(174,174,174)" stroke="rgb(174,174,174)" stroke-width="1" opacity="1.0"
          d="M 546.5 341.0 L 547.5 343.0 L 546.5 341.0 Z"/>
    <path fill="rgb(174,174,174)" stroke="rgb(174,174,174)" stroke-width="1" opacity="1.0"
          d="M 216.5 342.0 L 217.5 344.0 L 216.5 342.0 Z"/>
    <path fill="rgb(55,55,55)" stroke="rgb(55,55,55)" stroke-width="1" opacity="1.0"
          d="M 237.5 342.0 L 238.5 344.0 L 237.5 342.0 Z"/>
    <path fill="rgb(205,205,205)" stroke="rgb(205,205,205)" stroke-width="1" opacity="1.0"
          d="M 407.5 342.0 L 408.5 344.0 L 407.5 342.0 Z"/>
    <path fill="rgb(134,134,134)" stroke="rgb(134,134,134)" stroke-width="1" opacity="1.0"
          d="M 409.5 343.0 L 412.0 343.5 L 409.5 344.0 L 409.5 343.0 Z"/>
    <path fill="rgb(95,95,95)" stroke="rgb(95,95,95)" stroke-width="1" opacity="1.0"
          d="M 491.5 344.0 L 490.5 346.0 L 491.5 344.0 Z"/>
    <path fill="rgb(95,95,95)" stroke="rgb(95,95,95)" stroke-width="1" opacity="1.0"
          d="M 219.5 345.0 L 221.5 348.0 L 219.5 345.0 Z"/>
    <path fill="rgb(134,134,134)" stroke="rgb(134,134,134)" stroke-width="1" opacity="1.0"
          d="M 111.5 346.0 L 112.0 347.5 L 110.5 348.0 L 111.5 346.0 Z"/>
    <path fill="rgb(55,55,55)" stroke="rgb(55,55,55)" stroke-width="1" opacity="1.0"
          d="M 308.5 346.0 L 309.5 348.0 L 308.5 346.0 Z"/>
    <path fill="rgb(134,134,134)" stroke="rgb(134,134,134)" stroke-width="1" opacity="1.0"
          d="M 489.5 346.0 L 488.5 348.0 L 489.5 346.0 Z"/>
    <path fill="rgb(95,95,95)" stroke="rgb(95,95,95)" stroke-width="1" opacity="1.0"
          d="M 105.5 347.0 L 110.0 347.5 L 105.5 348.0 L 105.5 347.0 Z"/>
    <path fill="rgb(174,174,174)" stroke="rgb(174,174,174)" stroke-width="1" opacity="1.0"
          d="M 338.5 347.0 L 337.5 349.0 L 338.5 347.0 Z"/>
    <path fill="rgb(95,95,95)" stroke="rgb(95,95,95)" stroke-width="1" opacity="1.0"
          d="M 338.5 348.0 L 337.5 350.0 L 338.5 348.0 Z"/>
    <path fill="rgb(174,174,174)" stroke="rgb(174,174,174)" stroke-width="1" opacity="1.0"
          d="M 487.5 348.0 L 485.5 351.0 L 487.5 348.0 Z"/>
    <path fill="rgb(55,55,55)" stroke="rgb(55,55,55)" stroke-width="1" opacity="1.0"
          d="M 101.5 349.0 L 100.5 351.0 L 101.5 349.0 Z"/>
    <path fill="rgb(95,95,95)" stroke="rgb(95,95,95)" stroke-width="1" opacity="1.0"
          d="M 123.5 349.0 L 124.0 351.5 L 123.0 351.5 L 123.5 349.0 Z"/>
    <path fill="rgb(205,205,205)" stroke="rgb(205,205,205)" stroke-width="1" opacity="1.0"
          d="M 158.5 349.0 L 159.0 353.5 L 158.0 353.5 L 158.5 349.0 Z"/>
    <path fill="rgb(174,174,174)" stroke="rgb(174,174,174)" stroke-width="1" opacity="1.0"
          d="M 223.5 349.0 L 224.5 351.0 L 223.5 349.0 Z"/>
    <path fill="rgb(55,55,55)" stroke="rgb(55,55,55)" stroke-width="1" opacity="1.0"
          d="M 149.5 350.0 L 150.0 355.5 L 149.0 355.5 L 149.5 350.0 Z"/>
    <path fill="rgb(205,205,205)" stroke="rgb(205,205,205)" stroke-width="1" opacity="1.0"
          d="M 225.5 351.0 L 226.5 353.0 L 225.5 351.0 Z"/>
    <path fill="rgb(205,205,205)" stroke="rgb(205,205,205)" stroke-width="1" opacity="1.0"
          d="M 484.5 351.0 L 482.5 354.0 L 484.5 351.0 Z"/>
    <path fill="rgb(55,55,55)" stroke="rgb(55,55,55)" stroke-width="1" opacity="1.0"
          d="M 227.5 352.0 L 228.5 354.0 L 227.5 352.0 Z"/>
    <path fill="rgb(174,174,174)" stroke="rgb(174,174,174)" stroke-width="1" opacity="1.0"
          d="M 360.5 352.0 L 361.5 354.0 L 360.5 352.0 Z"/>
    <path fill="rgb(55,55,55)" stroke="rgb(55,55,55)" stroke-width="1" opacity="1.0"
          d="M 381.5 353.0 L 382.5 355.0 L 381.5 353.0 Z"/>
    <path fill="rgb(55,55,55)" stroke="rgb(55,55,55)" stroke-width="1" opacity="1.0"
          d="M 388.5 353.0 L 387.5 355.0 L 388.5 353.0 Z"/>
    <path fill="rgb(174,174,174)" stroke="rgb(174,174,174)" stroke-width="1" opacity="1.0"
          d="M 158.5 354.0 L 159.0 358.5 L 158.0 358.5 L 158.5 354.0 Z"/>
    <path fill="rgb(205,205,205)" stroke="rgb(205,205,205)" stroke-width="1" opacity="1.0"
          d="M 118.5 356.0 L 117.5 358.0 L 118.5 356.0 Z"/>
    <path fill="rgb(55,55,55)" stroke="rgb(55,55,55)" stroke-width="1" opacity="1.0"
          d="M 101.5 357.0 L 102.5 359.0 L 101.5 357.0 Z"/>
    <path fill="rgb(55,55,55)" stroke="rgb(55,55,55)" stroke-width="1" opacity="1.0"
          d="M 306.5 358.0 L 307.5 360.0 L 306.5 358.0 Z"/>
    <path fill="rgb(205,205,205)" stroke="rgb(205,205,205)" stroke-width="1" opacity="1.0"
          d="M 312.5 359.0 L 311.5 361.0 L 312.5 359.0 Z"/>
    <path fill="rgb(134,134,134)" stroke="rgb(134,134,134)" stroke-width="1" opacity="1.0"
          d="M 308.5 360.0 L 311.0 360.5 L 308.5 361.0 L 308.5 360.0 Z"/>
    <path fill="rgb(55,55,55)" stroke="rgb(55,55,55)" stroke-width="1" opacity="1.0"
          d="M 166.5 364.0 L 164.5 367.0 L 166.5 364.0 Z"/>
    <path fill="rgb(205,205,205)" stroke="rgb(205,205,205)" stroke-width="1" opacity="1.0"
          d="M 137.5 367.0 L 140.0 367.5 L 137.5 368.0 L 137.5 367.0 Z"/>
    <path fill="rgb(246,250,252)" stroke="rgb(246,250,252)" stroke-width="1" opacity="0.9882352941176471"
          d="M 180.5 369.0 L 194.0 370.5 L 204.0 384.5 L 212.0 398.5 Q 217.3 406.7 217.0 420.5 L 212.5 426.0 L 204.5 427.0 L 186.0 420.5 L 191.0 416.5 L 192.0 414.5 L 189.5 409.0 L 180.5 399.0 L 174.0 389.5 L 171.0 382.5 L 170.0 374.5 L 171.5 372.0 L 180.5 369.0 Z"/>
    <path fill="rgb(55,55,55)" stroke="rgb(55,55,55)" stroke-width="1" opacity="1.0"
          d="M 193.5 369.0 L 194.5 371.0 L 193.5 369.0 Z"/>
    <path fill="rgb(55,55,55)" stroke="rgb(55,55,55)" stroke-width="1" opacity="1.0"
          d="M 204.5 369.0 L 205.5 371.0 L 204.5 369.0 Z"/>
    <path fill="rgb(134,134,134)" stroke="rgb(134,134,134)" stroke-width="1" opacity="1.0"
          d="M 153.5 370.0 L 152.5 372.0 L 153.5 370.0 Z"/>
    <path fill="rgb(55,55,55)" stroke="rgb(55,55,55)" stroke-width="1" opacity="1.0"
          d="M 171.5 371.0 L 170.5 373.0 L 171.5 371.0 Z"/>
    <path fill="rgb(205,205,205)" stroke="rgb(205,205,205)" stroke-width="1" opacity="1.0"
          d="M 194.5 371.0 L 195.5 373.0 L 194.5 371.0 Z"/>
    <path fill="rgb(134,134,134)" stroke="rgb(134,134,134)" stroke-width="1" opacity="1.0"
          d="M 160.5 374.0 L 161.0 378.5 L 160.0 378.5 L 160.5 374.0 Z"/>
    <path fill="rgb(95,95,95)" stroke="rgb(95,95,95)" stroke-width="1" opacity="1.0"
          d="M 169.5 375.0 L 170.0 378.5 L 169.0 378.5 L 169.5 375.0 Z"/>
    <path fill="rgb(55,55,55)" stroke="rgb(55,55,55)" stroke-width="1" opacity="1.0"
          d="M 334.5 377.0 L 337.0 377.5 L 334.5 378.0 L 334.5 377.0 Z"/>
    <path fill="rgb(95,95,95)" stroke="rgb(95,95,95)" stroke-width="1" opacity="1.0"
          d="M 337.5 377.0 L 340.0 377.5 L 337.5 378.0 L 337.5 377.0 Z"/>
    <path fill="rgb(134,134,134)" stroke="rgb(134,134,134)" stroke-width="1" opacity="1.0"
          d="M 340.5 377.0 L 343.0 377.5 L 340.5 378.0 L 340.5 377.0 Z"/>
    <path fill="rgb(174,174,174)" stroke="rgb(174,174,174)" stroke-width="1" opacity="1.0"
          d="M 343.5 377.0 L 346.0 377.5 L 343.5 378.0 L 343.5 377.0 Z"/>
    <path fill="rgb(205,205,205)" stroke="rgb(205,205,205)" stroke-width="1" opacity="1.0"
          d="M 346.5 377.0 L 349.0 377.5 L 346.5 378.0 L 346.5 377.0 Z"/>
    <path fill="rgb(205,205,205)" stroke="rgb(205,205,205)" stroke-width="1" opacity="1.0"
          d="M 350.5 377.0 L 364.0 377.5 L 350.5 378.0 L 350.5 377.0 Z"/>
    <path fill="rgb(134,134,134)" stroke="rgb(134,134,134)" stroke-width="1" opacity="1.0"
          d="M 366.5 377.0 L 369.0 377.5 L 366.5 378.0 L 366.5 377.0 Z"/>
    <path fill="rgb(55,55,55)" stroke="rgb(55,55,55)" stroke-width="1" opacity="1.0"
          d="M 371.5 377.0 L 374.0 377.5 L 371.5 378.0 L 371.5 377.0 Z"/>
    <path fill="rgb(55,55,55)" stroke="rgb(55,55,55)" stroke-width="1" opacity="1.0"
          d="M 333.5 391.0 L 336.0 391.5 L 333.5 392.0 L 333.5 391.0 Z"/>
    <path fill="rgb(95,95,95)" stroke="rgb(95,95,95)" stroke-width="1" opacity="1.0"
          d="M 375.5 391.0 L 378.0 391.5 L 375.5 392.0 L 375.5 391.0 Z"/>
    <path fill="rgb(205,205,205)" stroke="rgb(205,205,205)" stroke-width="1" opacity="1.0"
          d="M 340.5 392.0 L 343.0 392.5 L 340.5 393.0 L 340.5 392.0 Z"/>
    <path fill="rgb(174,174,174)" stroke="rgb(174,174,174)" stroke-width="1" opacity="1.0"
          d="M 343.5 392.0 L 346.0 392.5 L 343.5 393.0 L 343.5 392.0 Z"/>
    <path fill="rgb(134,134,134)" stroke="rgb(134,134,134)" stroke-width="1" opacity="1.0"
          d="M 346.5 392.0 L 349.0 392.5 L 346.5 393.0 L 346.5 392.0 Z"/>
    <path fill="rgb(134,134,134)" stroke="rgb(134,134,134)" stroke-width="1" opacity="1.0"
          d="M 350.5 392.0 L 365.0 392.5 L 350.5 393.0 L 350.5 392.0 Z"/>
    <path fill="rgb(205,205,205)" stroke="rgb(205,205,205)" stroke-width="1" opacity="1.0"
          d="M 181.5 400.0 L 187.5 407.0 L 181.5 400.0 Z"/>
    <path fill="rgb(55,55,55)" stroke="rgb(55,55,55)" stroke-width="1" opacity="1.0"
          d="M 182.5 402.0 L 188.5 409.0 L 182.5 402.0 Z"/>
    <path fill="rgb(134,134,134)" stroke="rgb(134,134,134)" stroke-width="1" opacity="1.0"
          d="M 173.5 405.0 L 174.5 407.0 L 173.5 405.0 Z"/>
    <path fill="rgb(55,55,55)" stroke="rgb(55,55,55)" stroke-width="1" opacity="1.0"
          d="M 176.5 408.0 L 178.5 411.0 L 176.5 408.0 Z"/>
    <path fill="rgb(55,55,55)" stroke="rgb(55,55,55)" stroke-width="1" opacity="1.0"
          d="M 170.5 413.0 L 169.5 415.0 L 170.5 413.0 Z"/>
    <path fill="rgb(95,95,95)" stroke="rgb(95,95,95)" stroke-width="1" opacity="1.0"
          d="M 217.5 415.0 L 218.0 418.5 L 217.0 418.5 L 217.5 415.0 Z"/>
    <path fill="rgb(134,134,134)" stroke="rgb(134,134,134)" stroke-width="1" opacity="1.0"
          d="M 226.5 415.0 L 227.0 418.5 L 226.0 418.5 L 226.5 415.0 Z"/>
    <path fill="rgb(174,174,174)" stroke="rgb(174,174,174)" stroke-width="1" opacity="1.0"
          d="M 190.5 416.0 L 188.5 419.0 L 190.5 416.0 Z"/>
    <path fill="rgb(95,95,95)" stroke="rgb(95,95,95)" stroke-width="1" opacity="1.0"
          d="M 185.5 419.0 L 184.5 421.0 L 185.5 419.0 Z"/>
    <path fill="rgb(174,174,174)" stroke="rgb(174,174,174)" stroke-width="1" opacity="1.0"
          d="M 214.5 424.0 L 213.5 426.0 L 214.5 424.0 Z"/>
    <path fill="rgb(134,134,134)" stroke="rgb(134,134,134)" stroke-width="1" opacity="1.0"
          d="M 222.5 429.0 L 219.5 433.0 L 222.5 429.0 Z"/>
</svg>