<svg width="512" height="512" version="1.1" xmlns="http://www.w3.org/2000/svg">
    <path fill="rgb(34,45,7)" stroke="rgb(34,45,7)" stroke-width="1" opacity="0.09411764705882353"
          d="M 0.5 0.0 L 14.0 0.5 Q 5.4 2.4 2.0 9.5 L 0.5 14.0 L 0.5 0.0 Z"/>
    <path fill="rgb(247,174,58)" stroke="rgb(247,174,58)" stroke-width="1" opacity="0.984313725490196"
          d="M 17.5 0.0 L 240.0 0.5 L 239.5 2.0 Q 207.4 7.9 189.0 27.5 Q 178.6 38.1 171.5 52.0 L 158.5 49.0 L 150.5 48.0 L 138.5 47.0 L 133.5 48.0 L 118.0 50.5 Q 90.5 57.5 74.0 75.5 Q 64.8 84.8 58.5 97.0 Q 50.4 110.4 48.0 129.5 L 47.0 144.5 Q 49.3 145.8 48.0 150.5 L 49.0 158.5 L 52.0 171.5 Q 37.7 178.7 27.0 189.5 Q 7.7 208.2 1.5 240.0 L 0.0 239.5 L 0.0 73.5 L 0.0 31.5 Q -2.7 9.8 9.5 3.0 L 17.5 0.0 Z"/>
    <path fill="rgb(251,151,0)" stroke="rgb(251,151,0)" stroke-width="1" opacity="0.9921568627450981"
          d="M 240.5 0.0 L 429.5 0.0 L 477.5 0.0 Q 499.9 -2.9 508.0 8.5 Q 514.0 17.5 512.0 34.5 L 512.0 82.5 L 512.0 272.5 L 510.0 273.5 Q 504.1 304.1 485.5 322.0 L 485.0 266.5 L 485.0 251.5 L 484.0 243.5 Q 482.8 232.7 478.0 225.5 Q 472.4 214.1 463.5 206.0 Q 455.0 197.0 441.5 193.0 Q 432.7 188.3 419.0 188.5 L 430.0 172.5 L 433.5 165.0 L 437.0 151.5 L 438.0 135.5 L 436.0 124.5 Q 430.3 104.2 416.5 92.0 Q 399.3 73.7 363.5 74.0 L 353.0 76.5 Q 334.8 81.3 323.5 93.0 L 322.5 83.0 L 320.0 73.5 L 314.0 59.5 L 301.5 44.0 L 284.5 33.0 L 268.5 28.0 L 261.5 27.0 L 246.5 27.0 Q 220.6 32.1 206.0 48.5 L 199.0 58.5 L 193.0 70.5 Q 188.3 79.3 188.5 93.0 Q 181.1 85.4 170.5 81.0 Q 157.7 72.8 135.5 74.0 L 124.5 76.0 Q 104.2 81.7 92.0 95.5 Q 73.7 112.7 74.0 148.5 L 76.5 159.0 Q 81.3 177.3 93.0 188.5 L 83.0 189.5 L 73.5 192.0 L 63.5 196.0 L 58.5 199.0 L 44.0 210.5 Q 37.0 217.5 33.0 227.5 L 28.0 243.5 Q 25.4 249.4 27.0 259.5 L 27.0 301.5 L 27.0 468.5 Q 28.7 476.3 33.5 481.0 Q 38.8 485.7 48.0 486.5 L 65.5 487.0 L 116.5 487.0 L 319.0 487.5 Q 302.0 505.0 273.0 510.5 L 272.5 512.0 L 82.5 512.0 L 35.5 512.0 L 23.5 512.0 L 16.5 511.0 Q 8.0 509.5 4.0 503.5 Q -2.0 494.5 0.0 477.5 L 0.0 429.5 L 0.0 240.5 L 2.0 239.5 Q 7.9 207.4 27.5 189.0 Q 38.1 178.6 52.0 171.5 L 49.0 158.5 L 48.0 150.5 L 47.0 138.5 L 48.0 133.5 L 49.0 125.5 Q 51.5 107.5 59.5 95.0 Q 66.1 83.1 75.5 74.0 Q 86.5 63.0 101.5 56.0 Q 113.5 50.0 129.5 48.0 L 144.5 47.0 Q 145.8 49.3 150.5 48.0 L 158.5 49.0 L 171.5 52.0 Q 178.7 37.7 189.5 27.0 Q 208.2 7.7 240.0 1.5 L 240.5 0.0 Z"/>
    <path fill="rgb(34,45,7)" stroke="rgb(34,45,7)" stroke-width="1" opacity="0.09411764705882353"
          d="M 498.5 0.0 L 512.0 0.5 L 511.5 14.0 Q 509.6 5.4 502.5 2.0 L 499.5 1.0 L 498.5 0.0 Z"/>
    <path fill="rgb(255,169,38)" stroke="rgb(255,169,38)" stroke-width="1" opacity="0.6823529411764706"
          d="M 6.5 5.0 L 5.5 7.0 L 6.5 5.0 Z"/>
    <path fill="rgb(255,153,0)" stroke="rgb(255,153,0)" stroke-width="1" opacity="0.5019607843137255"
          d="M 505.5 5.0 L 506.5 7.0 L 505.5 5.0 Z"/>
    <path fill="rgb(128,77,0)" stroke="rgb(128,77,0)" stroke-width="1" opacity="1.0"
          d="M 248.5 27.0 L 253.0 27.5 L 248.5 28.0 L 248.5 27.0 Z"/>
    <path fill="rgb(0,0,0)" stroke="rgb(0,0,0)" stroke-width="1" opacity="0.9921568627450981"
          d="M 254.5 27.0 L 267.5 28.0 L 276.5 31.0 L 288.0 35.5 Q 299.3 41.2 307.0 50.5 Q 321.3 66.2 323.5 94.0 Q 330.4 86.4 340.5 82.0 L 346.0 79.5 L 358.5 76.0 L 365.5 75.0 L 379.5 75.0 Q 406.7 79.8 421.0 97.5 Q 428.5 106.0 433.0 117.5 L 436.5 133.0 L 437.0 150.5 L 434.5 160.0 Q 429.9 177.9 418.0 188.5 Q 451.7 191.3 468.0 211.5 L 478.5 228.0 Q 483.2 236.3 484.0 248.5 L 485.0 265.5 L 484.0 269.5 L 484.0 280.5 L 484.0 322.5 L 485.0 325.5 L 485.0 331.5 L 485.0 357.5 L 485.0 460.5 L 484.0 465.5 Q 483.8 475.3 478.5 480.0 Q 472.3 486.3 459.5 486.0 L 439.5 486.0 L 361.5 486.0 L 46.5 486.0 Q 37.9 484.6 33.0 479.5 Q 28.5 475.0 28.0 466.5 Q 25.7 459.8 27.0 449.5 L 27.0 410.5 L 27.0 254.5 L 28.0 249.5 L 29.0 241.5 Q 34.2 218.7 49.5 206.0 Q 65.3 190.8 94.0 188.5 Q 73.8 171.2 75.0 132.5 Q 79.6 106.1 96.5 92.0 Q 105.2 83.7 117.5 79.0 L 129.5 76.0 L 136.5 75.0 L 150.5 75.0 L 160.0 77.5 Q 178.0 82.0 188.5 94.0 Q 191.3 60.3 211.5 44.0 Q 222.9 33.4 240.5 29.0 L 249.5 28.0 L 254.5 27.0 Z"/>
    <path fill="rgb(128,77,0)" stroke="rgb(128,77,0)" stroke-width="1" opacity="1.0"
          d="M 259.5 27.0 L 264.0 27.5 L 259.5 28.0 L 259.5 27.0 Z"/>
    <path fill="rgb(128,77,0)" stroke="rgb(128,77,0)" stroke-width="1" opacity="1.0"
          d="M 218.5 38.0 L 217.5 40.0 L 218.5 38.0 Z"/>
    <path fill="rgb(128,77,0)" stroke="rgb(128,77,0)" stroke-width="1" opacity="1.0"
          d="M 293.5 38.0 L 294.5 40.0 L 293.5 38.0 Z"/>
    <path fill="rgb(128,77,0)" stroke="rgb(128,77,0)" stroke-width="1" opacity="1.0"
          d="M 214.5 41.0 L 213.5 43.0 L 214.5 41.0 Z"/>
    <path fill="rgb(128,77,0)" stroke="rgb(128,77,0)" stroke-width="1" opacity="1.0"
          d="M 297.5 41.0 L 298.5 43.0 L 297.5 41.0 Z"/>
    <path fill="rgb(215,129,0)" stroke="rgb(215,129,0)" stroke-width="1" opacity="0.9921568627450981"
          d="M 210.5 44.0 L 206.5 49.0 L 210.5 44.0 Z"/>
    <path fill="rgb(215,129,0)" stroke="rgb(215,129,0)" stroke-width="1" opacity="0.9921568627450981"
          d="M 301.5 44.0 L 305.5 49.0 L 301.5 44.0 Z"/>
    <path fill="rgb(128,77,0)" stroke="rgb(128,77,0)" stroke-width="1" opacity="1.0"
          d="M 204.5 51.0 L 203.5 53.0 L 204.5 51.0 Z"/>
    <path fill="rgb(128,77,0)" stroke="rgb(128,77,0)" stroke-width="1" opacity="1.0"
          d="M 307.5 51.0 L 308.5 53.0 L 307.5 51.0 Z"/>
    <path fill="rgb(128,77,0)" stroke="rgb(128,77,0)" stroke-width="1" opacity="1.0"
          d="M 201.5 55.0 L 200.5 57.0 L 201.5 55.0 Z"/>
    <path fill="rgb(128,77,0)" stroke="rgb(128,77,0)" stroke-width="1" opacity="1.0"
          d="M 310.5 55.0 L 311.5 57.0 L 310.5 55.0 Z"/>
    <path fill="rgb(128,77,0)" stroke="rgb(128,77,0)" stroke-width="1" opacity="1.0"
          d="M 199.5 58.0 L 198.5 60.0 L 199.5 58.0 Z"/>
    <path fill="rgb(251,251,252)" stroke="rgb(251,251,252)" stroke-width="1" opacity="0.9921568627450981"
          d="M 252.5 58.0 L 260.0 58.5 L 272.5 62.0 L 285.0 72.5 Q 293.1 81.4 292.0 99.5 Q 290.4 109.9 284.5 116.0 Q 280.2 118.2 281.0 125.5 L 281.0 139.5 L 281.0 193.5 L 334.0 141.5 Q 335.9 120.9 349.5 112.0 L 360.5 107.0 L 365.5 106.0 L 377.5 106.0 Q 392.6 109.4 400.0 120.5 Q 404.4 125.6 405.5 134.0 L 406.0 148.5 Q 402.6 163.6 391.5 171.0 Q 385.7 175.7 376.5 177.0 Q 369.1 176.1 367.5 181.0 L 357.5 191.0 L 318.0 230.5 L 390.5 231.0 L 400.0 224.5 L 405.5 222.0 L 412.0 220.5 L 423.5 220.0 Q 439.0 223.5 447.0 234.5 Q 453.5 242.0 454.0 255.5 L 58.5 256.0 L 58.0 252.5 Q 60.8 235.3 72.5 227.0 Q 81.4 218.9 99.5 220.0 Q 109.9 221.6 116.0 227.5 L 119.5 230.0 L 124.5 231.0 L 138.5 231.0 L 193.5 231.0 L 168.0 204.5 L 142.5 178.0 Q 121.1 176.4 112.0 162.5 L 107.0 151.5 L 106.0 146.5 L 106.0 134.5 Q 109.4 119.4 120.5 112.0 Q 125.6 107.6 134.0 106.5 L 149.5 106.0 Q 163.6 109.9 171.0 120.5 Q 176.0 126.5 177.0 136.5 Q 177.1 145.9 184.0 148.5 L 203.5 168.0 L 230.5 194.0 L 231.0 121.5 L 224.5 112.0 L 222.0 106.5 L 220.5 100.0 L 220.0 88.5 Q 223.5 73.0 234.5 65.0 L 246.5 59.0 Q 251.3 60.3 252.5 58.0 Z"/>
    <path fill="rgb(62,62,61)" stroke="rgb(62,62,61)" stroke-width="1" opacity="0.996078431372549"
          d="M 234.5 64.0 L 233.5 66.0 L 234.5 64.0 Z"/>
    <path fill="rgb(62,62,61)" stroke="rgb(62,62,61)" stroke-width="1" opacity="0.996078431372549"
          d="M 277.5 64.0 L 278.5 66.0 L 277.5 64.0 Z"/>
    <path fill="rgb(182,182,182)" stroke="rgb(182,182,182)" stroke-width="1" opacity="1.0"
          d="M 281.5 68.0 L 282.5 70.0 L 281.5 68.0 Z"/>
    <path fill="rgb(136,136,136)" stroke="rgb(136,136,136)" stroke-width="1" opacity="1.0"
          d="M 229.5 69.0 L 228.5 71.0 L 229.5 69.0 Z"/>
    <path fill="rgb(62,62,61)" stroke="rgb(62,62,61)" stroke-width="1" opacity="0.996078431372549"
          d="M 284.5 71.0 L 285.5 73.0 L 284.5 71.0 Z"/>
    <path fill="rgb(215,129,0)" stroke="rgb(215,129,0)" stroke-width="1" opacity="0.9921568627450981"
          d="M 135.5 74.0 L 138.0 74.5 L 135.5 75.0 L 135.5 74.0 Z"/>
    <path fill="rgb(128,77,0)" stroke="rgb(128,77,0)" stroke-width="1" opacity="1.0"
          d="M 138.5 74.0 L 145.0 74.5 L 138.5 75.0 L 138.5 74.0 Z"/>
    <path fill="rgb(215,129,0)" stroke="rgb(215,129,0)" stroke-width="1" opacity="0.9921568627450981"
          d="M 145.5 74.0 L 149.0 74.5 L 145.5 75.0 L 145.5 74.0 Z"/>
    <path fill="rgb(215,129,0)" stroke="rgb(215,129,0)" stroke-width="1" opacity="0.9921568627450981"
          d="M 363.5 74.0 L 367.0 74.5 L 363.5 75.0 L 363.5 74.0 Z"/>
    <path fill="rgb(128,77,0)" stroke="rgb(128,77,0)" stroke-width="1" opacity="1.0"
          d="M 367.5 74.0 L 374.0 74.5 L 367.5 75.0 L 367.5 74.0 Z"/>
    <path fill="rgb(215,129,0)" stroke="rgb(215,129,0)" stroke-width="1" opacity="0.9921568627450981"
          d="M 374.5 74.0 L 377.0 74.5 L 374.5 75.0 L 374.5 74.0 Z"/>
    <path fill="rgb(128,77,0)" stroke="rgb(128,77,0)" stroke-width="1" opacity="1.0"
          d="M 129.5 75.0 L 132.0 75.5 L 129.5 76.0 L 129.5 75.0 Z"/>
    <path fill="rgb(128,77,0)" stroke="rgb(128,77,0)" stroke-width="1" opacity="1.0"
          d="M 151.5 75.0 L 154.0 75.5 L 151.5 76.0 L 151.5 75.0 Z"/>
    <path fill="rgb(128,77,0)" stroke="rgb(128,77,0)" stroke-width="1" opacity="1.0"
          d="M 358.5 75.0 L 361.0 75.5 L 358.5 76.0 L 358.5 75.0 Z"/>
    <path fill="rgb(128,77,0)" stroke="rgb(128,77,0)" stroke-width="1" opacity="1.0"
          d="M 380.5 75.0 L 383.0 75.5 L 380.5 76.0 L 380.5 75.0 Z"/>
    <path fill="rgb(128,77,0)" stroke="rgb(128,77,0)" stroke-width="1" opacity="1.0"
          d="M 178.5 85.0 L 179.5 87.0 L 178.5 85.0 Z"/>
    <path fill="rgb(128,77,0)" stroke="rgb(128,77,0)" stroke-width="1" opacity="1.0"
          d="M 322.5 85.0 L 323.0 87.5 L 322.0 87.5 L 322.5 85.0 Z"/>
    <path fill="rgb(128,77,0)" stroke="rgb(128,77,0)" stroke-width="1" opacity="1.0"
          d="M 333.5 85.0 L 332.5 87.0 L 333.5 85.0 Z"/>
    <path fill="rgb(128,77,0)" stroke="rgb(128,77,0)" stroke-width="1" opacity="1.0"
          d="M 100.5 88.0 L 98.5 91.0 L 100.5 88.0 Z"/>
    <path fill="rgb(128,77,0)" stroke="rgb(128,77,0)" stroke-width="1" opacity="1.0"
          d="M 411.5 88.0 L 412.5 90.0 L 411.5 88.0 Z"/>
    <path fill="rgb(215,129,0)" stroke="rgb(215,129,0)" stroke-width="1" opacity="0.9921568627450981"
          d="M 185.5 90.0 L 187.5 93.0 L 185.5 90.0 Z"/>
    <path fill="rgb(62,62,61)" stroke="rgb(62,62,61)" stroke-width="1" opacity="0.996078431372549"
          d="M 219.5 90.0 L 220.0 97.5 L 219.0 97.5 L 219.5 90.0 Z"/>
    <path fill="rgb(62,62,61)" stroke="rgb(62,62,61)" stroke-width="1" opacity="0.996078431372549"
          d="M 292.5 90.0 L 293.0 97.5 L 292.0 97.5 L 292.5 90.0 Z"/>
    <path fill="rgb(215,129,0)" stroke="rgb(215,129,0)" stroke-width="1" opacity="0.9921568627450981"
          d="M 326.5 90.0 L 324.5 93.0 L 326.5 90.0 Z"/>
    <path fill="rgb(215,129,0)" stroke="rgb(215,129,0)" stroke-width="1" opacity="0.9921568627450981"
          d="M 95.5 92.0 L 92.5 96.0 L 95.5 92.0 Z"/>
    <path fill="rgb(215,129,0)" stroke="rgb(215,129,0)" stroke-width="1" opacity="0.9921568627450981"
          d="M 416.5 92.0 L 420.5 97.0 L 416.5 92.0 Z"/>
    <path fill="rgb(128,77,0)" stroke="rgb(128,77,0)" stroke-width="1" opacity="1.0"
          d="M 90.5 98.0 L 88.5 101.0 L 90.5 98.0 Z"/>
    <path fill="rgb(128,77,0)" stroke="rgb(128,77,0)" stroke-width="1" opacity="1.0"
          d="M 422.5 99.0 L 423.5 101.0 L 422.5 99.0 Z"/>
    <path fill="rgb(182,182,182)" stroke="rgb(182,182,182)" stroke-width="1" opacity="1.0"
          d="M 139.5 105.0 L 144.0 105.5 L 139.5 106.0 L 139.5 105.0 Z"/>
    <path fill="rgb(182,182,182)" stroke="rgb(182,182,182)" stroke-width="1" opacity="1.0"
          d="M 368.5 105.0 L 373.0 105.5 L 368.5 106.0 L 368.5 105.0 Z"/>
    <path fill="rgb(62,62,61)" stroke="rgb(62,62,61)" stroke-width="1" opacity="0.996078431372549"
          d="M 349.5 111.0 L 348.5 113.0 L 349.5 111.0 Z"/>
    <path fill="rgb(182,182,182)" stroke="rgb(182,182,182)" stroke-width="1" opacity="1.0"
          d="M 347.5 113.0 L 342.5 119.0 L 347.5 113.0 Z"/>
    <path fill="rgb(182,182,182)" stroke="rgb(182,182,182)" stroke-width="1" opacity="1.0"
          d="M 165.5 114.0 L 169.5 119.0 L 165.5 114.0 Z"/>
    <path fill="rgb(182,182,182)" stroke="rgb(182,182,182)" stroke-width="1" opacity="1.0"
          d="M 116.5 115.0 L 115.5 117.0 L 116.5 115.0 Z"/>
    <path fill="rgb(182,182,182)" stroke="rgb(182,182,182)" stroke-width="1" opacity="1.0"
          d="M 395.5 115.0 L 396.5 117.0 L 395.5 115.0 Z"/>
    <path fill="rgb(182,182,182)" stroke="rgb(182,182,182)" stroke-width="1" opacity="1.0"
          d="M 227.5 116.0 L 228.5 118.0 L 227.5 116.0 Z"/>
    <path fill="rgb(182,182,182)" stroke="rgb(182,182,182)" stroke-width="1" opacity="1.0"
          d="M 284.5 116.0 L 283.5 118.0 L 284.5 116.0 Z"/>
    <path fill="rgb(182,182,182)" stroke="rgb(182,182,182)" stroke-width="1" opacity="1.0"
          d="M 230.5 121.0 L 231.0 193.5 L 230.0 193.5 L 230.5 121.0 Z"/>
    <path fill="rgb(182,182,182)" stroke="rgb(182,182,182)" stroke-width="1" opacity="1.0"
          d="M 281.5 121.0 L 282.0 193.5 L 281.0 193.5 L 281.5 121.0 Z"/>
    <path fill="rgb(128,77,0)" stroke="rgb(128,77,0)" stroke-width="1" opacity="1.0"
          d="M 75.5 129.0 L 76.0 131.5 L 75.0 131.5 L 75.5 129.0 Z"/>
    <path fill="rgb(128,77,0)" stroke="rgb(128,77,0)" stroke-width="1" opacity="1.0"
          d="M 436.5 129.0 L 437.0 131.5 L 436.0 131.5 L 436.5 129.0 Z"/>
    <path fill="rgb(215,129,0)" stroke="rgb(215,129,0)" stroke-width="1" opacity="0.9921568627450981"
          d="M 74.5 135.0 L 75.0 137.5 L 74.0 137.5 L 74.5 135.0 Z"/>
    <path fill="rgb(215,129,0)" stroke="rgb(215,129,0)" stroke-width="1" opacity="0.9921568627450981"
          d="M 437.5 135.0 L 438.0 137.5 L 437.0 137.5 L 437.5 135.0 Z"/>
    <path fill="rgb(182,182,182)" stroke="rgb(182,182,182)" stroke-width="1" opacity="1.0"
          d="M 177.5 137.0 L 178.0 139.5 L 177.0 139.5 L 177.5 137.0 Z"/>
    <path fill="rgb(182,182,182)" stroke="rgb(182,182,182)" stroke-width="1" opacity="1.0"
          d="M 334.5 137.0 L 335.0 139.5 L 334.0 139.5 L 334.5 137.0 Z"/>
    <path fill="rgb(128,77,0)" stroke="rgb(128,77,0)" stroke-width="1" opacity="1.0"
          d="M 74.5 138.0 L 75.0 144.5 L 74.0 144.5 L 74.5 138.0 Z"/>
    <path fill="rgb(128,77,0)" stroke="rgb(128,77,0)" stroke-width="1" opacity="1.0"
          d="M 437.5 138.0 L 438.0 144.5 L 437.0 144.5 L 437.5 138.0 Z"/>
    <path fill="rgb(182,182,182)" stroke="rgb(182,182,182)" stroke-width="1" opacity="1.0"
          d="M 105.5 139.0 L 106.0 143.5 L 105.0 143.5 L 105.5 139.0 Z"/>
    <path fill="rgb(182,182,182)" stroke="rgb(182,182,182)" stroke-width="1" opacity="1.0"
          d="M 406.5 139.0 L 407.0 143.5 L 406.0 143.5 L 406.5 139.0 Z"/>
    <path fill="rgb(182,182,182)" stroke="rgb(182,182,182)" stroke-width="1" opacity="1.0"
          d="M 178.5 142.0 L 203.5 168.0 L 178.5 142.0 Z"/>
    <path fill="rgb(215,129,0)" stroke="rgb(215,129,0)" stroke-width="1" opacity="0.9921568627450981"
          d="M 74.5 145.0 L 75.0 148.5 L 74.0 148.5 L 74.5 145.0 Z"/>
    <path fill="rgb(215,129,0)" stroke="rgb(215,129,0)" stroke-width="1" opacity="0.9921568627450981"
          d="M 437.5 145.0 L 438.0 147.5 L 437.0 147.5 L 437.5 145.0 Z"/>
    <path fill="rgb(128,77,0)" stroke="rgb(128,77,0)" stroke-width="1" opacity="1.0"
          d="M 75.5 151.0 L 76.0 153.5 L 75.0 153.5 L 75.5 151.0 Z"/>
    <path fill="rgb(128,77,0)" stroke="rgb(128,77,0)" stroke-width="1" opacity="1.0"
          d="M 436.5 151.0 L 437.0 153.5 L 436.0 153.5 L 436.5 151.0 Z"/>
    <path fill="rgb(62,62,61)" stroke="rgb(62,62,61)" stroke-width="1" opacity="0.996078431372549"
          d="M 400.5 162.0 L 399.5 164.0 L 400.5 162.0 Z"/>
    <path fill="rgb(182,182,182)" stroke="rgb(182,182,182)" stroke-width="1" opacity="1.0"
          d="M 114.5 165.0 L 118.5 170.0 L 114.5 165.0 Z"/>
    <path fill="rgb(182,182,182)" stroke="rgb(182,182,182)" stroke-width="1" opacity="1.0"
          d="M 397.5 165.0 L 393.5 170.0 L 397.5 165.0 Z"/>
    <path fill="rgb(62,62,61)" stroke="rgb(62,62,61)" stroke-width="1" opacity="0.996078431372549"
          d="M 119.5 170.0 L 120.5 172.0 L 119.5 170.0 Z"/>
    <path fill="rgb(182,182,182)" stroke="rgb(182,182,182)" stroke-width="1" opacity="1.0"
          d="M 137.5 177.0 L 140.0 177.5 L 137.5 178.0 L 137.5 177.0 Z"/>
    <path fill="rgb(182,182,182)" stroke="rgb(182,182,182)" stroke-width="1" opacity="1.0"
          d="M 372.5 177.0 L 375.0 177.5 L 372.5 178.0 L 372.5 177.0 Z"/>
    <path fill="rgb(128,77,0)" stroke="rgb(128,77,0)" stroke-width="1" opacity="1.0"
          d="M 85.5 178.0 L 86.5 180.0 L 85.5 178.0 Z"/>
    <path fill="rgb(182,182,182)" stroke="rgb(182,182,182)" stroke-width="1" opacity="1.0"
          d="M 142.5 178.0 L 167.5 204.0 L 142.5 178.0 Z"/>
    <path fill="rgb(128,77,0)" stroke="rgb(128,77,0)" stroke-width="1" opacity="1.0"
          d="M 426.5 178.0 L 425.5 180.0 L 426.5 178.0 Z"/>
    <path fill="rgb(215,129,0)" stroke="rgb(215,129,0)" stroke-width="1" opacity="0.9921568627450981"
          d="M 90.5 185.0 L 92.5 188.0 L 90.5 185.0 Z"/>
    <path fill="rgb(215,129,0)" stroke="rgb(215,129,0)" stroke-width="1" opacity="0.9921568627450981"
          d="M 421.5 185.0 L 419.5 188.0 L 421.5 185.0 Z"/>
    <path fill="rgb(128,77,0)" stroke="rgb(128,77,0)" stroke-width="1" opacity="1.0"
          d="M 85.5 189.0 L 88.0 189.5 L 85.5 190.0 L 85.5 189.0 Z"/>
    <path fill="rgb(128,77,0)" stroke="rgb(128,77,0)" stroke-width="1" opacity="1.0"
          d="M 424.5 189.0 L 427.0 189.5 L 424.5 190.0 L 424.5 189.0 Z"/>
    <path fill="rgb(128,77,0)" stroke="rgb(128,77,0)" stroke-width="1" opacity="1.0"
          d="M 452.5 198.0 L 453.5 200.0 L 452.5 198.0 Z"/>
    <path fill="rgb(128,77,0)" stroke="rgb(128,77,0)" stroke-width="1" opacity="1.0"
          d="M 56.5 200.0 L 55.5 202.0 L 56.5 200.0 Z"/>
    <path fill="rgb(215,129,0)" stroke="rgb(215,129,0)" stroke-width="1" opacity="0.9921568627450981"
          d="M 457.5 201.0 L 458.5 203.0 L 457.5 201.0 Z"/>
    <path fill="rgb(128,77,0)" stroke="rgb(128,77,0)" stroke-width="1" opacity="1.0"
          d="M 52.5 203.0 L 51.5 205.0 L 52.5 203.0 Z"/>
    <path fill="rgb(128,77,0)" stroke="rgb(128,77,0)" stroke-width="1" opacity="1.0"
          d="M 459.5 203.0 L 460.5 205.0 L 459.5 203.0 Z"/>
    <path fill="rgb(215,129,0)" stroke="rgb(215,129,0)" stroke-width="1" opacity="0.9921568627450981"
          d="M 48.5 206.0 L 44.5 211.0 L 48.5 206.0 Z"/>
    <path fill="rgb(215,129,0)" stroke="rgb(215,129,0)" stroke-width="1" opacity="0.9921568627450981"
          d="M 463.5 206.0 L 467.5 211.0 L 463.5 206.0 Z"/>
    <path fill="rgb(128,77,0)" stroke="rgb(128,77,0)" stroke-width="1" opacity="1.0"
          d="M 42.5 213.0 L 41.5 215.0 L 42.5 213.0 Z"/>
    <path fill="rgb(128,77,0)" stroke="rgb(128,77,0)" stroke-width="1" opacity="1.0"
          d="M 469.5 213.0 L 470.5 215.0 L 469.5 213.0 Z"/>
    <path fill="rgb(128,77,0)" stroke="rgb(128,77,0)" stroke-width="1" opacity="1.0"
          d="M 39.5 217.0 L 38.5 219.0 L 39.5 217.0 Z"/>
    <path fill="rgb(128,77,0)" stroke="rgb(128,77,0)" stroke-width="1" opacity="1.0"
          d="M 472.5 217.0 L 473.5 219.0 L 472.5 217.0 Z"/>
    <path fill="rgb(62,62,61)" stroke="rgb(62,62,61)" stroke-width="1" opacity="0.996078431372549"
          d="M 90.5 219.0 L 98.0 219.5 L 90.5 220.0 L 90.5 219.0 Z"/>
    <path fill="rgb(62,62,61)" stroke="rgb(62,62,61)" stroke-width="1" opacity="0.996078431372549"
          d="M 414.5 219.0 L 422.0 219.5 L 414.5 220.0 L 414.5 219.0 Z"/>
    <path fill="rgb(62,62,61)" stroke="rgb(62,62,61)" stroke-width="1" opacity="0.996078431372549"
          d="M 439.5 226.0 L 440.5 228.0 L 439.5 226.0 Z"/>
    <path fill="rgb(129,129,129)" stroke="rgb(129,129,129)" stroke-width="1" opacity="1.0"
          d="M 71.5 227.0 L 70.5 229.0 L 71.5 227.0 Z"/>
    <path fill="rgb(182,182,182)" stroke="rgb(182,182,182)" stroke-width="1" opacity="1.0"
          d="M 116.5 227.0 L 117.5 229.0 L 116.5 227.0 Z"/>
    <path fill="rgb(182,182,182)" stroke="rgb(182,182,182)" stroke-width="1" opacity="1.0"
          d="M 395.5 227.0 L 394.5 229.0 L 395.5 227.0 Z"/>
    <path fill="rgb(182,182,182)" stroke="rgb(182,182,182)" stroke-width="1" opacity="1.0"
          d="M 442.5 229.0 L 443.5 231.0 L 442.5 229.0 Z"/>
    <path fill="rgb(136,136,136)" stroke="rgb(136,136,136)" stroke-width="1" opacity="1.0"
          d="M 121.5 230.0 L 156.0 230.5 L 121.5 231.0 L 121.5 230.0 Z"/>
    <path fill="rgb(182,182,182)" stroke="rgb(182,182,182)" stroke-width="1" opacity="1.0"
          d="M 156.5 230.0 L 194.0 230.5 L 156.5 231.0 L 156.5 230.0 Z"/>
    <path fill="rgb(182,182,182)" stroke="rgb(182,182,182)" stroke-width="1" opacity="1.0"
          d="M 318.5 230.0 L 391.0 230.5 L 318.5 231.0 L 318.5 230.0 Z"/>
    <path fill="rgb(62,62,61)" stroke="rgb(62,62,61)" stroke-width="1" opacity="0.996078431372549"
          d="M 446.5 233.0 L 447.5 235.0 L 446.5 233.0 Z"/>
    <path fill="rgb(128,77,0)" stroke="rgb(128,77,0)" stroke-width="1" opacity="1.0"
          d="M 27.5 248.0 L 28.0 252.5 L 27.0 252.5 L 27.5 248.0 Z"/>
    <path fill="rgb(128,77,0)" stroke="rgb(128,77,0)" stroke-width="1" opacity="1.0"
          d="M 484.5 248.0 L 485.0 252.5 L 484.0 252.5 L 484.5 248.0 Z"/>
    <path fill="rgb(62,62,61)" stroke="rgb(62,62,61)" stroke-width="1" opacity="0.996078431372549"
          d="M 484.5 266.0 L 485.0 322.5 L 484.0 322.5 L 484.5 266.0 Z"/>
    <path fill="rgb(129,129,129)" stroke="rgb(129,129,129)" stroke-width="1" opacity="1.0"
          d="M 130.5 272.0 L 133.0 272.5 L 130.5 273.0 L 130.5 272.0 Z"/>
    <path fill="rgb(129,129,129)" stroke="rgb(129,129,129)" stroke-width="1" opacity="1.0"
          d="M 139.5 272.0 L 142.0 272.5 L 139.5 273.0 L 139.5 272.0 Z"/>
    <path fill="rgb(62,62,61)" stroke="rgb(62,62,61)" stroke-width="1" opacity="0.996078431372549"
          d="M 197.5 272.0 L 230.0 272.5 L 197.5 273.0 L 197.5 272.0 Z"/>
    <path fill="rgb(62,62,61)" stroke="rgb(62,62,61)" stroke-width="1" opacity="0.996078431372549"
          d="M 281.5 272.0 L 314.0 272.5 L 281.5 273.0 L 281.5 272.0 Z"/>
    <path fill="rgb(62,62,61)" stroke="rgb(62,62,61)" stroke-width="1" opacity="0.996078431372549"
          d="M 373.5 272.0 L 377.0 272.5 L 373.5 273.0 L 373.5 272.0 Z"/>
    <path fill="rgb(251,251,252)" stroke="rgb(251,251,252)" stroke-width="1" opacity="0.9921568627450981"
          d="M 126.5 273.0 L 145.0 273.5 Q 154.8 274.2 161.0 278.5 Q 172.6 283.4 180.0 292.5 L 187.5 304.0 Q 193.5 313.5 194.0 328.5 L 162.5 329.0 Q 160.3 315.2 150.5 309.0 Q 144.2 303.3 130.5 305.0 Q 120.4 307.4 115.0 314.5 Q 107.8 321.3 110.0 337.5 Q 112.8 346.7 119.5 352.0 Q 124.5 357.0 134.5 357.0 L 144.5 358.0 Q 169.7 362.3 182.0 379.5 L 191.0 396.5 L 193.5 408.0 L 194.0 423.5 Q 189.4 449.4 171.5 462.0 Q 157.3 474.8 129.5 474.0 L 117.5 471.0 Q 100.6 465.9 91.0 453.5 L 83.0 440.5 Q 77.5 432.0 78.0 417.5 L 109.5 417.0 Q 110.8 432.2 121.5 438.0 L 129.5 441.0 L 139.5 442.0 Q 151.3 439.8 157.0 431.5 L 161.0 422.5 Q 163.7 418.7 162.0 410.5 Q 159.6 400.4 152.5 395.0 Q 145.7 388.8 132.5 389.0 L 123.5 388.0 Q 101.5 383.0 90.0 367.5 Q 81.2 357.8 78.5 342.0 L 77.0 330.5 L 78.0 325.5 L 79.0 317.5 Q 84.4 296.4 99.5 285.0 L 115.5 276.0 L 126.5 273.0 Z"/>
    <path fill="rgb(251,251,252)" stroke="rgb(251,251,252)" stroke-width="1" opacity="0.9921568627450981"
          d="M 198.5 273.0 L 230.0 273.5 L 247.5 359.0 L 254.5 391.0 L 258.0 389.5 L 273.0 312.5 L 279.5 284.0 L 281.0 276.5 L 282.5 273.0 L 313.0 273.5 L 271.5 474.0 L 248.5 474.0 L 242.5 474.0 L 239.0 472.5 L 212.0 341.5 L 198.5 273.0 Z"/>
    <path fill="rgb(251,251,252)" stroke="rgb(251,251,252)" stroke-width="1" opacity="0.9921568627450981"
          d="M 369.5 273.0 Q 402.9 273.1 418.0 291.5 L 428.0 306.5 Q 433.2 315.3 433.0 329.5 L 401.5 330.0 Q 399.9 316.1 390.5 310.0 Q 384.0 304.5 371.5 305.0 Q 359.7 307.2 354.0 315.5 Q 348.7 320.7 349.0 331.5 L 349.0 349.5 L 349.0 421.5 Q 350.9 430.1 356.5 435.0 L 362.5 439.0 L 365.5 440.0 Q 370.2 443.8 380.5 442.0 Q 389.9 439.9 395.0 433.5 Q 401.8 427.8 401.0 414.5 L 401.0 390.5 L 377.0 389.5 L 377.5 358.0 L 433.0 358.5 L 433.0 411.5 Q 434.8 426.3 430.0 434.5 L 425.0 446.5 L 411.5 462.0 Q 404.7 468.2 394.5 471.0 Q 383.7 476.2 365.5 474.0 Q 342.5 469.0 330.0 453.5 L 320.0 436.5 L 318.0 427.5 L 317.0 418.5 L 317.0 399.5 L 317.0 323.5 Q 321.5 297.5 339.5 285.0 Q 347.8 277.8 360.5 275.0 L 369.5 273.0 Z"/>
    <path fill="rgb(215,129,0)" stroke="rgb(215,129,0)" stroke-width="1" opacity="0.9921568627450981"
          d="M 510.5 273.0 L 512.0 273.5 L 512.0 439.5 L 512.0 480.5 Q 514.8 502.3 502.5 509.0 Q 494.9 513.9 480.5 512.0 L 439.5 512.0 L 273.5 512.0 L 273.0 510.5 Q 295.5 507.0 309.5 495.0 L 317.0 489.5 Q 317.8 486.3 322.5 487.0 L 332.5 487.0 L 373.5 487.0 L 440.5 487.0 L 460.5 487.0 L 467.5 486.0 Q 476.8 484.3 481.0 477.5 Q 485.4 471.9 485.0 461.5 L 485.0 442.5 L 485.0 367.5 L 485.0 334.5 L 485.0 325.5 Q 484.4 320.9 487.0 319.5 L 492.5 313.0 Q 506.4 297.9 510.5 273.0 Z"/>
    <path fill="rgb(62,62,61)" stroke="rgb(62,62,61)" stroke-width="1" opacity="0.996078431372549"
          d="M 70.5 278.0 L 104.0 278.5 L 87.0 293.5 L 78.0 310.5 L 75.5 321.0 L 75.0 340.5 L 80.0 357.5 L 77.5 358.0 Q 75.8 355.3 69.5 357.0 L 48.0 356.5 L 48.0 313.5 L 48.0 302.5 Q 47.4 296.4 50.0 293.5 L 57.5 284.0 L 70.5 278.0 Z"/>
    <path fill="rgb(62,62,61)" stroke="rgb(62,62,61)" stroke-width="1" opacity="0.996078431372549"
          d="M 167.5 278.0 L 196.0 278.5 L 214.0 365.5 L 212.5 365.0 L 179.0 362.5 L 170.5 362.0 Q 163.0 362.5 159.5 359.0 L 147.0 355.5 L 138.5 355.0 Q 137.3 352.8 132.5 354.0 Q 122.3 352.3 117.0 345.5 Q 112.2 339.8 112.0 329.5 L 113.5 324.0 Q 115.1 316.6 120.5 313.0 Q 126.7 306.2 141.5 308.0 Q 150.6 310.5 155.0 317.5 L 158.0 323.5 L 159.5 332.0 L 197.0 331.5 Q 196.8 311.7 188.5 300.0 Q 183.6 290.4 175.5 284.0 L 169.5 280.0 L 167.5 278.0 Z"/>
    <path fill="rgb(62,62,61)" stroke="rgb(62,62,61)" stroke-width="1" opacity="0.996078431372549"
          d="M 234.5 278.0 L 277.0 278.5 L 258.5 370.0 L 253.0 369.5 L 239.0 303.5 L 236.0 286.5 Q 233.0 283.1 234.5 278.0 Z"/>
    <path fill="rgb(62,62,61)" stroke="rgb(62,62,61)" stroke-width="1" opacity="0.996078431372549"
          d="M 315.5 278.0 L 345.0 278.5 L 331.0 288.5 L 321.0 303.5 Q 312.7 315.7 314.0 337.5 L 313.5 377.0 L 296.0 374.5 L 305.0 328.5 L 315.5 278.0 Z"/>
    <path fill="rgb(62,62,61)" stroke="rgb(62,62,61)" stroke-width="1" opacity="0.996078431372549"
          d="M 406.5 278.0 L 436.5 278.0 Q 448.6 276.4 454.0 281.5 L 463.0 289.5 L 466.0 296.5 L 467.0 304.5 L 467.0 322.5 L 467.0 396.5 L 465.5 397.0 L 457.0 395.5 L 436.0 392.5 L 435.5 355.0 L 373.0 355.5 L 372.5 385.0 L 368.5 384.0 L 352.0 381.5 L 352.0 340.5 L 352.0 330.5 Q 351.3 324.8 354.0 322.5 Q 355.8 315.3 361.5 312.0 L 371.0 308.5 L 378.5 308.0 Q 388.9 310.1 394.0 317.5 Q 399.0 322.5 398.5 333.0 L 425.5 333.0 L 432.5 333.0 Q 436.3 333.8 437.0 331.5 L 436.0 323.5 L 435.0 317.5 L 431.0 307.5 Q 426.3 294.3 416.5 286.0 L 409.5 281.0 L 406.5 278.0 Z"/>
    <path fill="rgb(182,182,182)" stroke="rgb(182,182,182)" stroke-width="1" opacity="1.0"
          d="M 172.5 285.0 L 173.5 287.0 L 172.5 285.0 Z"/>
    <path fill="rgb(129,129,129)" stroke="rgb(129,129,129)" stroke-width="1" opacity="1.0"
          d="M 97.5 286.0 L 96.5 288.0 L 97.5 286.0 Z"/>
    <path fill="rgb(182,182,182)" stroke="rgb(182,182,182)" stroke-width="1" opacity="1.0"
          d="M 412.5 286.0 L 414.5 289.0 L 412.5 286.0 Z"/>
    <path fill="rgb(62,62,61)" stroke="rgb(62,62,61)" stroke-width="1" opacity="0.996078431372549"
          d="M 175.5 287.0 L 179.5 292.0 L 175.5 287.0 Z"/>
    <path fill="rgb(182,182,182)" stroke="rgb(182,182,182)" stroke-width="1" opacity="1.0"
          d="M 336.5 287.0 L 331.5 293.0 L 336.5 287.0 Z"/>
    <path fill="rgb(62,62,61)" stroke="rgb(62,62,61)" stroke-width="1" opacity="0.996078431372549"
          d="M 416.5 289.0 L 417.5 291.0 L 416.5 289.0 Z"/>
    <path fill="rgb(136,136,136)" stroke="rgb(136,136,136)" stroke-width="1" opacity="1.0"
          d="M 93.5 290.0 L 92.5 292.0 L 93.5 290.0 Z"/>
    <path fill="rgb(182,182,182)" stroke="rgb(182,182,182)" stroke-width="1" opacity="1.0"
          d="M 418.5 292.0 L 419.5 294.0 L 418.5 292.0 Z"/>
    <path fill="rgb(62,62,61)" stroke="rgb(62,62,61)" stroke-width="1" opacity="0.996078431372549"
          d="M 90.5 293.0 L 89.5 295.0 L 90.5 293.0 Z"/>
    <path fill="rgb(182,182,182)" stroke="rgb(182,182,182)" stroke-width="1" opacity="1.0"
          d="M 180.5 293.0 L 181.5 295.0 L 180.5 293.0 Z"/>
    <path fill="rgb(62,62,61)" stroke="rgb(62,62,61)" stroke-width="1" opacity="0.996078431372549"
          d="M 421.5 295.0 L 422.5 297.0 L 421.5 295.0 Z"/>
    <path fill="rgb(62,62,61)" stroke="rgb(62,62,61)" stroke-width="1" opacity="0.996078431372549"
          d="M 132.5 305.0 L 139.0 305.5 L 132.5 306.0 L 132.5 305.0 Z"/>
    <path fill="rgb(182,182,182)" stroke="rgb(182,182,182)" stroke-width="1" opacity="1.0"
          d="M 371.5 305.0 L 374.0 305.5 L 371.5 306.0 L 371.5 305.0 Z"/>
    <path fill="rgb(182,182,182)" stroke="rgb(182,182,182)" stroke-width="1" opacity="1.0"
          d="M 376.5 305.0 L 379.0 305.5 L 376.5 306.0 L 376.5 305.0 Z"/>
    <path fill="rgb(182,182,182)" stroke="rgb(182,182,182)" stroke-width="1" opacity="1.0"
          d="M 119.5 310.0 L 115.5 315.0 L 119.5 310.0 Z"/>
    <path fill="rgb(62,62,61)" stroke="rgb(62,62,61)" stroke-width="1" opacity="0.996078431372549"
          d="M 152.5 311.0 L 155.5 315.0 L 152.5 311.0 Z"/>
    <path fill="rgb(129,129,129)" stroke="rgb(129,129,129)" stroke-width="1" opacity="1.0"
          d="M 357.5 312.0 L 356.5 314.0 L 357.5 312.0 Z"/>
    <path fill="rgb(62,62,61)" stroke="rgb(62,62,61)" stroke-width="1" opacity="0.996078431372549"
          d="M 392.5 312.0 L 393.5 314.0 L 392.5 312.0 Z"/>
    <path fill="rgb(62,62,61)" stroke="rgb(62,62,61)" stroke-width="1" opacity="0.996078431372549"
          d="M 115.5 315.0 L 114.5 317.0 L 115.5 315.0 Z"/>
    <path fill="rgb(62,62,61)" stroke="rgb(62,62,61)" stroke-width="1" opacity="0.996078431372549"
          d="M 316.5 324.0 L 317.0 326.5 L 316.0 326.5 L 316.5 324.0 Z"/>
    <path fill="rgb(62,62,61)" stroke="rgb(62,62,61)" stroke-width="1" opacity="0.996078431372549"
          d="M 194.5 325.0 L 195.0 329.5 L 194.0 329.5 L 194.5 325.0 Z"/>
    <path fill="rgb(182,182,182)" stroke="rgb(182,182,182)" stroke-width="1" opacity="1.0"
          d="M 77.5 326.0 L 78.0 329.5 L 77.0 329.5 L 77.5 326.0 Z"/>
    <path fill="rgb(129,129,129)" stroke="rgb(129,129,129)" stroke-width="1" opacity="1.0"
          d="M 316.5 327.0 L 317.0 329.5 L 316.0 329.5 L 316.5 327.0 Z"/>
    <path fill="rgb(62,62,61)" stroke="rgb(62,62,61)" stroke-width="1" opacity="0.996078431372549"
          d="M 349.5 328.0 L 350.0 418.5 L 349.0 418.5 L 349.5 328.0 Z"/>
    <path fill="rgb(182,182,182)" stroke="rgb(182,182,182)" stroke-width="1" opacity="1.0"
          d="M 162.5 329.0 L 194.0 329.5 L 162.5 330.0 L 162.5 329.0 Z"/>
    <path fill="rgb(136,136,136)" stroke="rgb(136,136,136)" stroke-width="1" opacity="1.0"
          d="M 316.5 330.0 L 317.0 417.5 L 316.0 417.5 L 316.5 330.0 Z"/>
    <path fill="rgb(62,62,61)" stroke="rgb(62,62,61)" stroke-width="1" opacity="0.996078431372549"
          d="M 401.5 330.0 L 434.0 330.5 L 401.5 331.0 L 401.5 330.0 Z"/>
    <path fill="rgb(182,182,182)" stroke="rgb(182,182,182)" stroke-width="1" opacity="1.0"
          d="M 77.5 332.0 L 78.0 335.5 L 77.0 335.5 L 77.5 332.0 Z"/>
    <path fill="rgb(62,62,61)" stroke="rgb(62,62,61)" stroke-width="1" opacity="0.996078431372549"
          d="M 114.5 345.0 L 115.5 347.0 L 114.5 345.0 Z"/>
    <path fill="rgb(182,182,182)" stroke="rgb(182,182,182)" stroke-width="1" opacity="1.0"
          d="M 115.5 347.0 L 119.5 352.0 L 115.5 347.0 Z"/>
    <path fill="rgb(62,62,61)" stroke="rgb(62,62,61)" stroke-width="1" opacity="0.996078431372549"
          d="M 132.5 356.0 L 135.0 356.5 L 132.5 357.0 L 132.5 356.0 Z"/>
    <path fill="rgb(182,182,182)" stroke="rgb(182,182,182)" stroke-width="1" opacity="1.0"
          d="M 140.5 357.0 L 143.0 357.5 L 140.5 358.0 L 140.5 357.0 Z"/>
    <path fill="rgb(136,136,136)" stroke="rgb(136,136,136)" stroke-width="1" opacity="1.0"
          d="M 377.5 357.0 L 433.0 357.5 L 377.5 358.0 L 377.5 357.0 Z"/>
    <path fill="rgb(182,182,182)" stroke="rgb(182,182,182)" stroke-width="1" opacity="1.0"
          d="M 376.5 358.0 L 377.0 389.5 L 376.0 389.5 L 376.5 358.0 Z"/>
    <path fill="rgb(182,182,182)" stroke="rgb(182,182,182)" stroke-width="1" opacity="1.0"
          d="M 433.5 358.0 L 434.0 418.5 L 433.0 418.5 L 433.5 358.0 Z"/>
    <path fill="rgb(62,62,61)" stroke="rgb(62,62,61)" stroke-width="1" opacity="0.996078431372549"
          d="M 89.5 367.0 L 90.5 369.0 L 89.5 367.0 Z"/>
    <path fill="rgb(182,182,182)" stroke="rgb(182,182,182)" stroke-width="1" opacity="1.0"
          d="M 170.5 368.0 L 171.5 370.0 L 170.5 368.0 Z"/>
    <path fill="rgb(62,62,61)" stroke="rgb(62,62,61)" stroke-width="1" opacity="0.996078431372549"
          d="M 172.5 369.0 L 173.5 371.0 L 172.5 369.0 Z"/>
    <path fill="rgb(136,136,136)" stroke="rgb(136,136,136)" stroke-width="1" opacity="1.0"
          d="M 92.5 370.0 L 93.5 372.0 L 92.5 370.0 Z"/>
    <path fill="rgb(129,129,129)" stroke="rgb(129,129,129)" stroke-width="1" opacity="1.0"
          d="M 174.5 371.0 L 175.5 373.0 L 174.5 371.0 Z"/>
    <path fill="rgb(129,129,129)" stroke="rgb(129,129,129)" stroke-width="1" opacity="1.0"
          d="M 96.5 374.0 L 97.5 376.0 L 96.5 374.0 Z"/>
    <path fill="rgb(129,129,129)" stroke="rgb(129,129,129)" stroke-width="1" opacity="1.0"
          d="M 179.5 376.0 L 180.5 378.0 L 179.5 376.0 Z"/>
    <path fill="rgb(136,136,136)" stroke="rgb(136,136,136)" stroke-width="1" opacity="1.0"
          d="M 132.5 389.0 L 135.0 389.5 L 132.5 390.0 L 132.5 389.0 Z"/>
    <path fill="rgb(182,182,182)" stroke="rgb(182,182,182)" stroke-width="1" opacity="1.0"
          d="M 135.5 389.0 L 139.0 389.5 L 135.5 390.0 L 135.5 389.0 Z"/>
    <path fill="rgb(62,62,61)" stroke="rgb(62,62,61)" stroke-width="1" opacity="0.996078431372549"
          d="M 377.5 390.0 L 401.0 390.5 L 377.5 391.0 L 377.5 390.0 Z"/>
    <path fill="rgb(182,182,182)" stroke="rgb(182,182,182)" stroke-width="1" opacity="1.0"
          d="M 152.5 395.0 L 155.5 399.0 L 152.5 395.0 Z"/>
    <path fill="rgb(62,62,61)" stroke="rgb(62,62,61)" stroke-width="1" opacity="0.996078431372549"
          d="M 194.5 409.0 L 195.0 413.5 L 194.0 413.5 L 194.5 409.0 Z"/>
    <path fill="rgb(62,62,61)" stroke="rgb(62,62,61)" stroke-width="1" opacity="0.996078431372549"
          d="M 161.5 414.0 L 162.0 416.5 L 161.0 416.5 L 161.5 414.0 Z"/>
    <path fill="rgb(129,129,129)" stroke="rgb(129,129,129)" stroke-width="1" opacity="1.0"
          d="M 194.5 414.0 L 195.0 416.5 L 194.0 416.5 L 194.5 414.0 Z"/>
    <path fill="rgb(62,62,61)" stroke="rgb(62,62,61)" stroke-width="1" opacity="0.996078431372549"
          d="M 78.5 416.0 L 109.0 416.5 L 78.5 417.0 L 78.5 416.0 Z"/>
    <path fill="rgb(182,182,182)" stroke="rgb(182,182,182)" stroke-width="1" opacity="1.0"
          d="M 77.5 417.0 L 78.0 420.5 L 77.0 420.5 L 77.5 417.0 Z"/>
    <path fill="rgb(62,62,61)" stroke="rgb(62,62,61)" stroke-width="1" opacity="0.996078431372549"
          d="M 194.5 417.0 L 195.0 421.5 L 194.0 421.5 L 194.5 417.0 Z"/>
    <path fill="rgb(129,129,129)" stroke="rgb(129,129,129)" stroke-width="1" opacity="1.0"
          d="M 316.5 418.0 L 317.0 420.5 L 316.0 420.5 L 316.5 418.0 Z"/>
    <path fill="rgb(62,62,61)" stroke="rgb(62,62,61)" stroke-width="1" opacity="0.996078431372549"
          d="M 115.5 431.0 L 119.5 436.0 L 115.5 431.0 Z"/>
    <path fill="rgb(62,62,61)" stroke="rgb(62,62,61)" stroke-width="1" opacity="0.996078431372549"
          d="M 354.5 431.0 L 355.5 433.0 L 354.5 431.0 Z"/>
    <path fill="rgb(136,136,136)" stroke="rgb(136,136,136)" stroke-width="1" opacity="1.0"
          d="M 155.5 432.0 L 153.5 435.0 L 155.5 432.0 Z"/>
    <path fill="rgb(182,182,182)" stroke="rgb(182,182,182)" stroke-width="1" opacity="1.0"
          d="M 394.5 433.0 L 392.5 436.0 L 394.5 433.0 Z"/>
    <path fill="rgb(182,182,182)" stroke="rgb(182,182,182)" stroke-width="1" opacity="1.0"
          d="M 152.5 435.0 L 151.5 437.0 L 152.5 435.0 Z"/>
    <path fill="rgb(62,62,61)" stroke="rgb(62,62,61)" stroke-width="1" opacity="0.996078431372549"
          d="M 358.5 435.0 L 359.5 437.0 L 358.5 435.0 Z"/>
    <path fill="rgb(136,136,136)" stroke="rgb(136,136,136)" stroke-width="1" opacity="1.0"
          d="M 133.5 441.0 L 138.0 441.5 L 133.5 442.0 L 133.5 441.0 Z"/>
    <path fill="rgb(62,62,61)" stroke="rgb(62,62,61)" stroke-width="1" opacity="0.996078431372549"
          d="M 371.5 441.0 L 374.0 441.5 L 371.5 442.0 L 371.5 441.0 Z"/>
    <path fill="rgb(62,62,61)" stroke="rgb(62,62,61)" stroke-width="1" opacity="0.996078431372549"
          d="M 326.5 449.0 L 327.5 451.0 L 326.5 449.0 Z"/>
    <path fill="rgb(62,62,61)" stroke="rgb(62,62,61)" stroke-width="1" opacity="0.996078431372549"
          d="M 182.5 451.0 L 181.5 453.0 L 182.5 451.0 Z"/>
    <path fill="rgb(62,62,61)" stroke="rgb(62,62,61)" stroke-width="1" opacity="0.996078431372549"
          d="M 329.5 453.0 L 332.5 457.0 L 329.5 453.0 Z"/>
    <path fill="rgb(62,62,61)" stroke="rgb(62,62,61)" stroke-width="1" opacity="0.996078431372549"
          d="M 420.5 453.0 L 419.5 455.0 L 420.5 453.0 Z"/>
    <path fill="rgb(62,62,61)" stroke="rgb(62,62,61)" stroke-width="1" opacity="0.996078431372549"
          d="M 91.5 454.0 L 96.5 460.0 L 91.5 454.0 Z"/>
    <path fill="rgb(182,182,182)" stroke="rgb(182,182,182)" stroke-width="1" opacity="1.0"
          d="M 178.5 455.0 L 175.5 459.0 L 178.5 455.0 Z"/>
    <path fill="rgb(129,129,129)" stroke="rgb(129,129,129)" stroke-width="1" opacity="1.0"
          d="M 418.5 455.0 L 417.5 457.0 L 418.5 455.0 Z"/>
    <path fill="rgb(129,129,129)" stroke="rgb(129,129,129)" stroke-width="1" opacity="1.0"
          d="M 333.5 457.0 L 334.5 459.0 L 333.5 457.0 Z"/>
    <path fill="rgb(129,129,129)" stroke="rgb(129,129,129)" stroke-width="1" opacity="1.0"
          d="M 415.5 458.0 L 414.5 460.0 L 415.5 458.0 Z"/>
    <path fill="rgb(62,62,61)" stroke="rgb(62,62,61)" stroke-width="1" opacity="0.996078431372549"
          d="M 335.5 459.0 L 337.5 462.0 L 335.5 459.0 Z"/>
    <path fill="rgb(182,182,182)" stroke="rgb(182,182,182)" stroke-width="1" opacity="1.0"
          d="M 98.5 460.0 L 99.5 462.0 L 98.5 460.0 Z"/>
    <path fill="rgb(62,62,61)" stroke="rgb(62,62,61)" stroke-width="1" opacity="0.996078431372549"
          d="M 413.5 460.0 L 412.5 462.0 L 413.5 460.0 Z"/>
    <path fill="rgb(62,62,61)" stroke="rgb(62,62,61)" stroke-width="1" opacity="0.996078431372549"
          d="M 172.5 461.0 L 171.5 463.0 L 172.5 461.0 Z"/>
    <path fill="rgb(62,62,61)" stroke="rgb(62,62,61)" stroke-width="1" opacity="0.996078431372549"
          d="M 100.5 462.0 L 101.5 464.0 L 100.5 462.0 Z"/>
    <path fill="rgb(62,62,61)" stroke="rgb(62,62,61)" stroke-width="1" opacity="0.996078431372549"
          d="M 340.5 463.0 L 341.5 465.0 L 340.5 463.0 Z"/>
    <path fill="rgb(128,77,0)" stroke="rgb(128,77,0)" stroke-width="1" opacity="1.0"
          d="M 484.5 463.0 L 485.0 467.5 L 484.0 467.5 L 484.5 463.0 Z"/>
    <path fill="rgb(128,77,0)" stroke="rgb(128,77,0)" stroke-width="1" opacity="1.0"
          d="M 27.5 464.0 L 28.0 467.5 L 27.0 467.5 L 27.5 464.0 Z"/>
    <path fill="rgb(62,62,61)" stroke="rgb(62,62,61)" stroke-width="1" opacity="0.996078431372549"
          d="M 133.5 474.0 L 139.0 474.5 L 133.5 475.0 L 133.5 474.0 Z"/>
    <path fill="rgb(182,182,182)" stroke="rgb(182,182,182)" stroke-width="1" opacity="1.0"
          d="M 373.5 474.0 L 377.0 474.5 L 373.5 475.0 L 373.5 474.0 Z"/>
    <path fill="rgb(128,77,0)" stroke="rgb(128,77,0)" stroke-width="1" opacity="1.0"
          d="M 480.5 477.0 L 479.5 479.0 L 480.5 477.0 Z"/>
    <path fill="rgb(128,77,0)" stroke="rgb(128,77,0)" stroke-width="1" opacity="1.0"
          d="M 35.5 481.0 L 36.5 483.0 L 35.5 481.0 Z"/>
    <path fill="rgb(128,77,0)" stroke="rgb(128,77,0)" stroke-width="1" opacity="1.0"
          d="M 476.5 481.0 L 475.5 483.0 L 476.5 481.0 Z"/>
    <path fill="rgb(128,77,0)" stroke="rgb(128,77,0)" stroke-width="1" opacity="1.0"
          d="M 50.5 486.0 L 463.0 486.5 L 50.5 487.0 L 50.5 486.0 Z"/>
    <path fill="rgb(34,45,7)" stroke="rgb(34,45,7)" stroke-width="1" opacity="0.09411764705882353"
          d="M 0.5 498.0 Q 2.4 506.6 9.5 510.0 L 14.0 511.5 L 0.5 512.0 L 0.5 498.0 Z"/>
    <path fill="rgb(34,45,7)" stroke="rgb(34,45,7)" stroke-width="1" opacity="0.09411764705882353"
          d="M 511.5 498.0 L 512.0 511.5 L 498.5 512.0 L 498.5 511.0 L 504.0 508.5 L 510.0 502.5 L 511.5 498.0 Z"/>
    <path fill="rgb(250,151,4)" stroke="rgb(250,151,4)" stroke-width="1" opacity="0.7372549019607844"
          d="M 506.5 505.0 L 505.5 507.0 L 506.5 505.0 Z"/>
</svg>